<?xml version="1.0" encoding="utf-8"?>
<!-- Generator: Adobe Illustrator 27.5.0, SVG Export Plug-In . SVG Version: 6.00 Build 0)  -->
<svg version="1.1" xmlns="http://www.w3.org/2000/svg" xmlns:xlink="http://www.w3.org/1999/xlink" x="0px" y="0px"
	 viewBox="0 0 500 500" style="enable-background:new 0 0 500 500;" xml:space="preserve">
<g id="BACKGROUND">
	<g>
		<rect style="fill:#F9FFFF;" width="500" height="500"/>
	</g>
</g>
<g id="OBJECTS">
	<g>
		<g>
			<rect x="0" y="468.25" style="fill:#BDDDE8;" width="500" height="1"/>
		</g>
		<g>
			<rect x="0" y="437" style="fill:#BDDDE8;" width="500" height="1"/>
		</g>
		<g>
			<rect x="0" y="405.75" style="fill:#BDDDE8;" width="500" height="1"/>
		</g>
		<g>
			<rect x="0" y="374.5" style="fill:#BDDDE8;" width="500" height="1"/>
		</g>
		<g>
			<rect x="0" y="343.25" style="fill:#BDDDE8;" width="500" height="1"/>
		</g>
		<g>
			<rect x="0" y="312" style="fill:#BDDDE8;" width="500" height="1"/>
		</g>
		<g>
			<rect x="0" y="280.75" style="fill:#BDDDE8;" width="500" height="1"/>
		</g>
		<g>
			<rect x="0" y="249.5" style="fill:#BDDDE8;" width="500" height="1"/>
		</g>
		<g>
			<rect x="0" y="218.25" style="fill:#BDDDE8;" width="500" height="1"/>
		</g>
		<g>
			<rect x="0" y="187" style="fill:#BDDDE8;" width="500" height="1"/>
		</g>
		<g>
			<rect x="0" y="155.75" style="fill:#BDDDE8;" width="500" height="1"/>
		</g>
		<g>
			<rect x="0" y="124.5" style="fill:#BDDDE8;" width="500" height="1"/>
		</g>
		<g>
			<rect x="0" y="93.25" style="fill:#BDDDE8;" width="500" height="1"/>
		</g>
		<g>
			<rect x="0" y="62" style="fill:#BDDDE8;" width="500" height="1"/>
		</g>
		<g>
			<rect x="0" y="30.75" style="fill:#BDDDE8;" width="500" height="1"/>
		</g>
		<g>
			<rect x="468.25" y="0" style="fill:#BDDDE8;" width="1" height="500"/>
		</g>
		<g>
			<rect x="437" y="0" style="fill:#BDDDE8;" width="1" height="500"/>
		</g>
		<g>
			<rect x="405.75" y="0" style="fill:#BDDDE8;" width="1" height="500"/>
		</g>
		<g>
			<rect x="374.5" y="0" style="fill:#BDDDE8;" width="1" height="500"/>
		</g>
		<g>
			<rect x="343.25" y="0" style="fill:#BDDDE8;" width="1" height="500"/>
		</g>
		<g>
			<rect x="312" y="0" style="fill:#BDDDE8;" width="1" height="500"/>
		</g>
		<g>
			<rect x="280.75" y="0" style="fill:#BDDDE8;" width="1" height="500"/>
		</g>
		<g>
			<rect x="249.5" y="0" style="fill:#BDDDE8;" width="1" height="500"/>
		</g>
		<g>
			<rect x="218.25" y="0" style="fill:#BDDDE8;" width="1" height="500"/>
		</g>
		<g>
			<rect x="187" y="0" style="fill:#BDDDE8;" width="1" height="500"/>
		</g>
		<g>
			<rect x="155.75" y="0" style="fill:#BDDDE8;" width="1" height="500"/>
		</g>
		<g>
			<rect x="124.5" y="0" style="fill:#BDDDE8;" width="1" height="500"/>
		</g>
		<g>
			<rect x="93.25" y="0" style="fill:#BDDDE8;" width="1" height="500"/>
		</g>
		<g>
			<rect x="62" y="0" style="fill:#BDDDE8;" width="1" height="500"/>
		</g>
		<g>
			<rect x="30.75" y="0" style="fill:#BDDDE8;" width="1" height="500"/>
		</g>
	</g>
	<g>
		<g>
			<g>
				<g>
					<g>
						<g>
							<defs>
								<path id="SVGID_1_" d="M466.158,318.641l4.106,3.859l-4.029,0.103l-0.051-1.993l-0.025-0.996l-0.013-0.498l-0.006-0.249
									l-0.003-0.125l-0.002-0.062l-0.001-0.031l0-0.016l0-0.008l0-0.004l0-0.002v-0.001
									C466.15,318.634,466.149,318.633,466.158,318.641z"/>
							</defs>
							<clipPath id="SVGID_00000000182695311604041810000014248450850240429747_">
								<use xlink:href="#SVGID_1_"  style="overflow:visible;"/>
							</clipPath>
						</g>
						<g>
							<defs>
								<path id="SVGID_00000050647801576924367750000010035154248137359780_" d="M466.158,318.641l4.106,3.859l-0.074-2.014
									l-0.06-1.061l-0.032-0.53l-0.051-0.529l-1.985,0.182l-0.992,0.091l-0.496,0.046l-0.248,0.023l-0.124,0.011l-0.062,0.006
									l-0.031,0.003l-0.016,0.001l-0.008,0.001l-0.004,0l-0.002,0l-0.001,0C466.132,318.671,466.13,318.673,466.158,318.641z"/>
							</defs>
							<clipPath id="SVGID_00000032619995178621528630000015311263945034596282_">
								<use xlink:href="#SVGID_00000050647801576924367750000010035154248137359780_"  style="overflow:visible;"/>
							</clipPath>
						</g>
					</g>
				</g>
				<g>
					<g>
						<path style="fill:#E4A4CE;" d="M466.53,310.858c-1.053,0.338-1.641,1.393-1.398,2.381c0.254,0.985,1.283,1.63,2.372,1.422
							c1.073-0.203,1.778-1.289,1.491-2.405C468.719,311.138,467.573,310.523,466.53,310.858z"/>
					</g>
					<g>
						<path style="fill:#E4A4CE;" d="M463.439,303.651c-0.967,0.553-1.313,1.702-0.877,2.621c0.464,0.905,1.585,1.332,2.611,0.902
							c1.005-0.419,1.489-1.636,0.965-2.664C465.641,303.469,464.383,303.11,463.439,303.651z"/>
					</g>
					<g>
						<path style="fill:#E4A4CE;" d="M458.885,297.27c-0.826,0.747-0.913,1.936-0.285,2.732c0.637,0.789,1.832,0.962,2.739,0.331
							c0.901-0.626,1.107-1.91,0.383-2.811C461.005,296.617,459.692,296.54,458.885,297.27z"/>
					</g>
					<g>
						<path style="fill:#E4A4CE;" d="M453.098,291.982c-0.66,0.903-0.485,2.074,0.284,2.743c0.774,0.663,2.01,0.544,2.76-0.263
							c0.749-0.807,0.649-2.068-0.226-2.815C455.045,290.894,453.735,291.107,453.098,291.982z"/>
					</g>
					<g>
						<path style="fill:#E4A4CE;" d="M446.38,287.935c-0.237,0.497-0.256,1.039-0.107,1.51c0.154,0.463,0.468,0.87,0.913,1.132
							c0.893,0.499,2.087,0.137,2.66-0.797c0.578-0.943,0.232-2.155-0.769-2.713c-0.492-0.287-1.056-0.32-1.551-0.147
							C447.034,287.085,446.618,287.439,446.38,287.935z"/>
					</g>
					<g>
						<path style="fill:#E4A4CE;" d="M439.019,285.231c-0.274,1.083,0.325,2.099,1.289,2.443c0.971,0.321,2.079-0.269,2.461-1.281
							c0.396-1.048-0.176-2.164-1.265-2.522C440.421,283.489,439.284,284.178,439.019,285.231z"/>
					</g>
					<g>
						<path style="fill:#E4A4CE;" d="M431.275,284.006c-0.049,1.114,0.736,1.99,1.745,2.138c1.011,0.117,1.98-0.669,2.16-1.736
							c0.186-1.105-0.592-2.096-1.736-2.228C432.302,282.019,431.322,282.921,431.275,284.006z"/>
					</g>
					<g>
						<path style="fill:#E4A4CE;" d="M423.451,284.456c0.096,0.542,0.395,0.994,0.785,1.29c0.389,0.282,0.875,0.449,1.384,0.406
							c1.004-0.1,1.777-1.083,1.729-2.16c-0.051-1.122-1.027-1.917-2.182-1.801c-0.573,0.05-1.061,0.335-1.368,0.77
							C423.489,283.384,423.355,283.914,423.451,284.456z"/>
					</g>
					<g>
						<path style="fill:#E4A4CE;" d="M415.965,286.757c0.227,0.502,0.629,0.868,1.08,1.06c0.451,0.189,0.952,0.204,1.435,0.049
							c0.947-0.332,1.457-1.472,1.149-2.516c-0.315-1.067-1.457-1.602-2.557-1.214c-0.55,0.18-0.943,0.603-1.138,1.089
							C415.737,285.71,415.738,286.256,415.965,286.757z"/>
					</g>
					<g>
						<path style="fill:#E4A4CE;" d="M409.266,290.819c0.697,0.866,1.885,1.038,2.708,0.461c0.844-0.548,1.07-1.763,0.509-2.71
							c-0.561-0.947-1.808-1.202-2.782-0.565C408.749,288.672,408.582,289.971,409.266,290.819z"/>
					</g>
					<g>
						<path style="fill:#E4A4CE;" d="M403.736,296.371c0.877,0.666,2.106,0.577,2.742-0.202c0.685-0.735,0.63-1.954-0.144-2.742
							c-0.769-0.782-2.058-0.746-2.848,0.108C402.745,294.434,402.86,295.705,403.736,296.371z"/>
					</g>
					<g>
						<path style="fill:#E4A4CE;" d="M399.728,303.104c1.005,0.421,2.193,0.04,2.626-0.862c0.205-0.464,0.256-0.957,0.114-1.429
							c-0.142-0.47-0.461-0.912-0.934-1.194c-0.473-0.282-1.014-0.344-1.516-0.201c-0.499,0.142-0.975,0.48-1.213,1.009
							C398.296,301.478,398.702,302.673,399.728,303.104z"/>
					</g>
					<g>
						<path style="fill:#E4A4CE;" d="M397.608,310.644c0.547,0.077,1.058-0.069,1.462-0.345c0.425-0.274,0.736-0.679,0.837-1.173
							c0.167-0.984-0.415-2.004-1.479-2.319c-1.047-0.311-2.216,0.334-2.421,1.492c-0.117,0.569-0.002,1.126,0.28,1.548
							C396.59,310.275,397.065,310.568,397.608,310.644z"/>
					</g>
					<g>
						<path style="fill:#E4A4CE;" d="M397.53,318.477c1.088-0.139,1.87-1.062,1.821-2.066c-0.063-1.003-0.929-1.833-2.041-1.854
							c-1.089-0.022-2.01,0.91-1.94,2.073C395.429,317.794,396.434,318.616,397.53,318.477z"/>
					</g>
					<g>
						<path style="fill:#E4A4CE;" d="M399.314,326.111c1.04-0.381,1.6-1.463,1.308-2.433c-0.137-0.493-0.476-0.879-0.918-1.119
							c-0.429-0.243-0.958-0.341-1.495-0.215c-0.535,0.125-0.974,0.458-1.237,0.907c-0.251,0.444-0.327,1.004-0.173,1.556
							C397.131,325.913,398.287,326.487,399.314,326.111z"/>
					</g>
					<g>
						<path style="fill:#E4A4CE;" d="M402.708,333.18c0.928-0.581,1.25-1.756,0.766-2.652c-0.492-0.891-1.641-1.265-2.647-0.794
							c-0.988,0.462-1.41,1.692-0.854,2.701C400.521,333.448,401.769,333.768,402.708,333.18z"/>
					</g>
					<g>
						<path style="fill:#E4A4CE;" d="M407.471,339.409c0.806-0.771,0.855-1.963,0.208-2.751c-0.666-0.771-1.871-0.9-2.751-0.241
							c-0.882,0.661-1.041,1.947-0.289,2.819C405.372,340.125,406.687,340.161,407.471,339.409z"/>
					</g>
					<g>
						<path style="fill:#E4A4CE;" d="M413.385,344.56c0.32-0.45,0.426-0.975,0.362-1.467c-0.059-0.501-0.292-0.964-0.7-1.278
							c-0.821-0.609-2.004-0.523-2.745,0.314c-0.719,0.811-0.64,2.132,0.28,2.819c0.451,0.348,0.995,0.486,1.499,0.419
							C412.592,345.292,413.068,345.007,413.385,344.56z"/>
					</g>
					<g>
						<path style="fill:#E4A4CE;" d="M420.179,348.481c0.451-1.009,0.061-2.172-0.855-2.626c-0.898-0.49-2.08-0.116-2.638,0.833
							c-0.558,0.949-0.195,2.164,0.812,2.711C418.523,349.909,419.732,349.483,420.179,348.481z"/>
					</g>
					<g>
						<path style="fill:#E4A4CE;" d="M427.595,351.035c0.247-1.08-0.365-2.108-1.339-2.417c-0.985-0.27-2.061,0.282-2.43,1.318
							c-0.369,1.038,0.204,2.202,1.313,2.509C426.235,352.789,427.351,352.101,427.595,351.035z"/>
					</g>
					<g>
						<path style="fill:#E4A4CE;" d="M435.368,352.064c0.014-1.083-0.794-2.031-1.806-2.09c-1.011-0.075-1.952,0.679-2.108,1.779
							c-0.153,1.079,0.646,2.109,1.798,2.195C434.406,354.018,435.353,353.182,435.368,352.064z"/>
					</g>
					<g>
						<path style="fill:#E4A4CE;" d="M443.174,351.344c-0.239-1.081-1.233-1.781-2.229-1.62c-1.002,0.122-1.741,1.126-1.653,2.211
							c0.09,1.109,1.095,1.875,2.246,1.731C442.684,353.482,443.411,352.412,443.174,351.344z"/>
					</g>
					<g>
						<path style="fill:#E4A4CE;" d="M450.605,348.853c-0.234-0.498-0.643-0.858-1.099-1.045c-0.454-0.179-0.962-0.198-1.442-0.024
							c-0.476,0.184-0.825,0.564-1.024,1.023c-0.204,0.443-0.252,0.982-0.079,1.505c0.174,0.522,0.544,0.927,1.017,1.154
							c0.466,0.212,1.03,0.228,1.566,0.02c0.54-0.199,0.93-0.615,1.115-1.106C450.849,349.896,450.84,349.351,450.605,348.853z"/>
					</g>
					<g>
						<path style="fill:#E4A4CE;" d="M457.253,344.705c-0.704-0.852-1.886-1.003-2.719-0.439c-0.804,0.605-1.057,1.764-0.479,2.713
							c0.566,0.932,1.854,1.233,2.789,0.537C457.805,346.859,457.952,345.55,457.253,344.705z"/>
					</g>
					<g>
						<path style="fill:#E4A4CE;" d="M462.663,339.043c-0.445-0.323-0.974-0.44-1.455-0.384c-0.493,0.051-0.965,0.258-1.282,0.65
							c-0.311,0.398-0.451,0.882-0.424,1.368c0.033,0.49,0.245,0.993,0.642,1.374c0.397,0.381,0.91,0.563,1.431,0.536
							c0.525-0.021,1.047-0.262,1.407-0.718c0.366-0.45,0.532-0.991,0.471-1.505C463.382,339.841,463.109,339.366,462.663,339.043z"
							/>
					</g>
					<g>
						<path style="fill:#E4A4CE;" d="M466.35,332.136c-1.038-0.363-2.148,0.106-2.556,1.013c-0.399,0.911-0.002,2.045,0.962,2.574
							c0.966,0.53,2.208,0.12,2.681-0.957C467.919,333.693,467.39,332.499,466.35,332.136z"/>
					</g>
					<g>
						<path style="fill:#E4A4CE;" d="M468.033,324.485c-1.099-0.085-2.05,0.66-2.205,1.65c-0.149,0.991,0.54,1.983,1.613,2.231
							c1.073,0.248,2.154-0.476,2.329-1.631C469.948,325.581,469.129,324.569,468.033,324.485z"/>
					</g>
					<g>
						<g>
							<defs>
								<path id="SVGID_00000009571004307939946750000017143406267946573751_" d="M466.158,318.641l4.106,3.859l-4.029,0.103
									l-0.051-1.993l-0.025-0.996l-0.013-0.498l-0.006-0.249l-0.003-0.125l-0.002-0.062l-0.001-0.031l0-0.016l0-0.008l0-0.004
									l0-0.002v-0.001C466.15,318.634,466.149,318.633,466.158,318.641z"/>
							</defs>
							<use xlink:href="#SVGID_00000009571004307939946750000017143406267946573751_"  style="overflow:visible;fill:#E4A4CE;"/>
							<clipPath id="SVGID_00000040536730666680891100000016826435358971444408_">
								<use xlink:href="#SVGID_00000009571004307939946750000017143406267946573751_"  style="overflow:visible;"/>
							</clipPath>
							<path style="clip-path:url(#SVGID_00000040536730666680891100000016826435358971444408_);fill:#E4A4CE;" d="M470.191,320.486
								l-0.009-0.109l-0.014-0.107l-0.019-0.106l-0.023-0.104l-0.028-0.101l-0.033-0.099l-0.037-0.097l-0.041-0.094l-0.045-0.091
								l-0.049-0.088l-0.053-0.085l-0.057-0.082l-0.06-0.078l-0.064-0.075l-0.067-0.072l-0.07-0.068l-0.074-0.064l-0.078-0.06
								l-0.081-0.056l-0.083-0.051l-0.086-0.047l-0.088-0.043l-0.09-0.038l-0.092-0.034l-0.094-0.029l-0.095-0.024l-0.097-0.019
								l-0.098-0.014l-0.1-0.009l-0.101-0.004l-0.102,0.001l-0.102,0.007l-0.102,0.012l-0.1,0.017l-0.098,0.022l-0.096,0.026
								l-0.094,0.031l-0.092,0.035l-0.089,0.039l-0.087,0.043l-0.084,0.047l-0.081,0.051l-0.079,0.054l-0.076,0.057l-0.073,0.061
								l-0.069,0.064l-0.066,0.066l-0.033,0.034l-0.016,0.017l-0.008,0.009l-0.004,0.004l-0.002,0.002l-0.001,0.001l0,0.001
								c0.017-0.037,0.016-0.036,0.025-0.056l-0.065,0.071l-0.061,0.074l-0.058,0.077l-0.054,0.079l-0.05,0.082l-0.046,0.085
								l-0.042,0.087l-0.038,0.089l-0.034,0.091l-0.029,0.094l-0.025,0.095l-0.02,0.097l-0.015,0.099l-0.01,0.1l-0.005,0.101v0.103
								l0.005,0.102l0.01,0.101l0.015,0.099l0.02,0.098l0.025,0.096l0.03,0.094l0.034,0.092l0.038,0.09l0.043,0.087l0.047,0.085
								l0.051,0.082l0.054,0.08l0.058,0.077l0.062,0.074l0.065,0.071l0.068,0.068l0.072,0.064l0.075,0.061l0.078,0.057l0.08,0.053
								l0.083,0.05l0.086,0.046l0.088,0.042l0.09,0.038l0.092,0.033l0.094,0.029l0.096,0.024l0.098,0.02l0.1,0.015l0.101,0.01
								l0.103,0.005h0.104l0.104-0.005l0.102-0.01l0.1-0.015l0.099-0.02l0.097-0.025l0.095-0.029l0.093-0.034l0.091-0.038
								l0.088-0.042l0.086-0.046l0.083-0.05l0.08-0.054l0.078-0.058l0.075-0.061l0.072-0.064l0.068-0.068l0.063-0.072l0.06-0.075
								l0.056-0.078l0.053-0.081l0.049-0.084l0.045-0.086l0.041-0.089l0.037-0.091l0.032-0.093l0.028-0.095l0.023-0.097l0.019-0.098
								l0.014-0.1l0.009-0.101l0.004-0.103L470.191,320.486z"/>
						</g>
						<g>
							<defs>
								<path id="SVGID_00000005248119949827802290000012280968359974257575_" d="M466.158,318.641l4.106,3.859l-0.074-2.014
									l-0.06-1.061l-0.032-0.53l-0.051-0.529l-1.985,0.182l-0.992,0.091l-0.496,0.046l-0.248,0.023l-0.124,0.011l-0.062,0.006
									l-0.031,0.003l-0.016,0.001l-0.008,0.001l-0.004,0l-0.002,0l-0.001,0C466.132,318.671,466.13,318.673,466.158,318.641z"/>
							</defs>
							<use xlink:href="#SVGID_00000005248119949827802290000012280968359974257575_"  style="overflow:visible;fill:#E4A4CE;"/>
							<clipPath id="SVGID_00000168077611422186357260000015903495126871102090_">
								<use xlink:href="#SVGID_00000005248119949827802290000012280968359974257575_"  style="overflow:visible;"/>
							</clipPath>
							<path style="clip-path:url(#SVGID_00000168077611422186357260000015903495126871102090_);fill:#E4A4CE;" d="M468.063,318.548
								l-0.102,0.012l-0.1,0.017l-0.098,0.022l-0.096,0.026l-0.094,0.031l-0.092,0.035l-0.089,0.039l-0.087,0.043l-0.084,0.047
								l-0.081,0.051l-0.079,0.054l-0.076,0.057l-0.073,0.061l-0.069,0.064l-0.131,0.136c0.017-0.037,0.016-0.036,0.025-0.056
								l-0.001,0.001l-0.001,0.001l-0.002,0.002l-0.004,0.004l-0.008,0.009l-0.016,0.018l-0.032,0.036l-0.061,0.074l-0.058,0.077
								l-0.054,0.079l-0.05,0.082l-0.046,0.085l-0.042,0.087l-0.038,0.089l-0.034,0.091l-0.029,0.094l-0.025,0.095l-0.02,0.097
								l-0.015,0.099l-0.01,0.1l-0.005,0.101v0.103l0.005,0.102l0.01,0.101l0.015,0.099l0.02,0.098l0.025,0.096l0.03,0.094
								l0.034,0.092l0.038,0.09l0.043,0.087l0.047,0.085l0.051,0.082l0.054,0.08l0.058,0.077l0.062,0.074l0.065,0.071l0.068,0.068
								l0.072,0.064l0.075,0.061l0.078,0.057l0.08,0.053l0.083,0.05l0.086,0.046l0.088,0.042l0.09,0.038l0.092,0.033l0.094,0.029
								l0.096,0.024l0.098,0.02l0.1,0.015l0.101,0.01l0.103,0.005h0.104l0.104-0.005l0.102-0.01l0.1-0.015l0.099-0.02l0.097-0.025
								l0.095-0.029l0.093-0.034l0.091-0.038l0.088-0.042l0.086-0.046l0.083-0.05l0.08-0.054l0.078-0.058l0.075-0.061l0.072-0.064
								l0.068-0.068l0.063-0.072l0.06-0.075l0.056-0.078l0.053-0.081l0.049-0.084l0.045-0.086l0.041-0.089l0.037-0.091l0.032-0.093
								l0.028-0.095l0.023-0.097l0.019-0.098l0.014-0.1l0.009-0.101l0.004-0.103l-0.001-0.104l-0.009-0.109l-0.014-0.107
								l-0.019-0.106l-0.023-0.104l-0.028-0.101l-0.033-0.099l-0.037-0.097l-0.041-0.094l-0.045-0.091l-0.049-0.088l-0.053-0.085
								l-0.057-0.082l-0.06-0.078l-0.064-0.075l-0.067-0.072l-0.07-0.068l-0.074-0.064l-0.078-0.06l-0.081-0.056l-0.083-0.051
								l-0.086-0.047l-0.088-0.043l-0.09-0.038l-0.092-0.034l-0.094-0.029l-0.095-0.024l-0.097-0.019l-0.098-0.014l-0.1-0.009
								l-0.101-0.004l-0.102,0.001L468.063,318.548z"/>
						</g>
					</g>
				</g>
				<g>
					<g>
						<g>
							<defs>
								<path id="SVGID_00000116926828554070482830000001910475222355385482_" d="M466.158,318.641l4.106,3.859l-4.029,0.103
									l-0.051-1.993l-0.025-0.996l-0.013-0.498l-0.006-0.249l-0.003-0.125l-0.002-0.062l-0.001-0.031l0-0.016l0-0.008l0-0.004
									l0-0.002v-0.001C466.15,318.634,466.149,318.633,466.158,318.641z"/>
							</defs>
							<clipPath id="SVGID_00000125574004581954823230000004418313401493624704_">
								<use xlink:href="#SVGID_00000116926828554070482830000001910475222355385482_"  style="overflow:visible;"/>
							</clipPath>
						</g>
						<g>
							<defs>
								<path id="SVGID_00000133526553108506111540000001006228918407213720_" d="M466.158,318.641l4.106,3.859l-0.074-2.014
									l-0.06-1.061l-0.032-0.53l-0.051-0.529l-1.985,0.182l-0.992,0.091l-0.496,0.046l-0.248,0.023l-0.124,0.011l-0.062,0.006
									l-0.031,0.003l-0.016,0.001l-0.008,0.001l-0.004,0l-0.002,0l-0.001,0C466.132,318.671,466.13,318.673,466.158,318.641z"/>
							</defs>
							<clipPath id="SVGID_00000180349236127295466530000006398925891501381812_">
								<use xlink:href="#SVGID_00000133526553108506111540000001006228918407213720_"  style="overflow:visible;"/>
							</clipPath>
						</g>
					</g>
				</g>
			</g>
			<g>
				<path style="fill:#373C70;" d="M409.093,360.909c-0.088,0-0.177-0.009-0.266-0.028c0,0,0,0-0.001,0l-0.006-0.002
					c-0.029-0.006-0.058-0.012-0.087-0.019l-4.896-1.064c-4.143-0.897-8.489-2.146-12.916-3.711
					c-0.583-0.206-0.928-0.806-0.811-1.413c0.115-0.606,0.662-1.044,1.273-1.015c0.34,0.029,3.479-0.034,6.936-1.564
					c1.412-0.628,2.424-1.98,2.706-3.619c0.278-1.621-0.216-3.213-1.32-4.26c-14.615-13.832-17.986-32.461-9.017-49.833
					c0.001-0.003,0.003-0.006,0.004-0.009c8.629-16.409,24.594-23.845,42.708-19.901l4.963,1.079
					c0.01,0.002,0.017,0.003,0.025,0.005c0.675,0.147,1.103,0.813,0.956,1.487c-0.146,0.674-0.81,1.103-1.487,0.956l0,0
					c-16.96-3.694-31.898,3.272-39.963,18.621c-8.424,16.314-5.242,33.838,8.515,46.87c1.714,1.622,2.486,4.051,2.065,6.495
					c-0.423,2.463-1.979,4.512-4.163,5.479c-0.919,0.407-1.818,0.721-2.664,0.962c2.569,0.78,5.114,1.445,7.607,1.988l0.102,0.022
					c0.674,0.147,1.103,0.813,0.956,1.486C410.186,360.51,409.669,360.909,409.093,360.909z M392.907,295.532
					c-8.427,16.325-5.243,33.845,8.517,46.867c1.713,1.623,2.485,4.052,2.065,6.498c-0.424,2.464-1.978,4.514-4.156,5.481
					c-0.051,0.022-0.101,0.044-0.15,0.065c1.175-0.219,2.615-0.601,4.116-1.265c1.416-0.629,2.431-1.981,2.712-3.618
					c0.278-1.618-0.215-3.21-1.32-4.257c-14.611-13.841-17.98-32.472-9.013-49.839c4.742-9.026,11.708-15.34,20.029-18.537
					C406.129,279.258,398.099,285.66,392.907,295.532z"/>
			</g>
			<g>
				<path style="fill:#373C70;" d="M426.053,362.796c-8.495,0.001-18.539-1.51-30.149-5.629c-0.574-0.203-0.918-0.792-0.814-1.393
					c0.105-0.599,0.624-1.035,1.232-1.035c0.01-0.001,0.021,0,0.033,0c0.462,0,3.551-0.059,6.948-1.56
					c1.413-0.627,2.427-1.98,2.708-3.617c0.279-1.621-0.215-3.214-1.32-4.262c-14.612-13.836-17.983-32.465-9.017-49.833
					c5.194-9.884,13.018-16.598,22.628-19.424c10.629-3.126,23.049-1.34,34.076,4.899l0,0c18.18,10.285,31.935,32.611,19.175,57.326
					c-2.768,5.271-6.304,9.673-10.515,13.089C460.04,352.304,448.432,362.795,426.053,362.796z M401.655,356.428
					c37.977,11.503,56.873-6.122,57.69-6.909c0.026-0.024,0.053-0.049,0.081-0.071c3.963-3.206,7.297-7.354,9.91-12.332
					c11.996-23.236-1.02-44.28-18.189-53.996l0,0c-10.442-5.907-22.158-7.611-32.141-4.677c-8.945,2.631-16.248,8.917-21.116,18.181
					c-8.422,16.314-5.239,33.836,8.519,46.863c1.714,1.623,2.486,4.053,2.065,6.499c-0.424,2.464-1.978,4.513-4.16,5.48
					C403.395,355.872,402.498,356.187,401.655,356.428z"/>
			</g>
		</g>
		<path style="fill:#373C70;" d="M436.194,305.276c1.232-8.382-5.883-15.077-13.433-13.315c-0.418-0.037-0.861,0.012-1.319,0.199
			c-9.54,3.884-17.329,12.746-18.788,23.122c-1.319,9.381,6.056,17.161,15.59,14.047
			C427.45,326.323,434.843,314.458,436.194,305.276z M414.439,324.686c-8.642,0.462-6.943-10.147-4.395-15.227
			c2.338-4.662,5.944-8.302,10.35-10.84c0.392-0.02,0.805-0.135,1.228-0.402c3.379-2.127,7.715-1.374,9.078,2.73
			c1.14,3.433-0.714,7.594-2.239,10.628C425.857,316.756,420.959,324.337,414.439,324.686z"/>
		<path style="fill:#373C70;" d="M450.654,340.559c1.39-3.1-3.172-5.898-4.578-2.76c-1.905,0.373-2.644-0.153-2.217-1.579
			c0.085-0.83,0.182-1.658,0.293-2.485c0.169-1.402,0.349-2.802,0.524-4.204c0.397-3.188,0.794-6.375,1.191-9.563l12.605-8.124
			c2.881-1.857,0.335-6.56-2.56-4.694c-3.92,2.527-7.841,5.053-11.761,7.58c1.952-3.579,3.904-7.158,5.856-10.737
			c1.643-3.012-2.927-5.789-4.578-2.761c-6.547,12.005-13.094,24.01-19.642,36.014c-1.643,3.012,2.927,5.789,4.578,2.761
			c2.884-5.288,5.768-10.576,8.652-15.865c0.316-0.055,0.644-0.174,0.977-0.389l0.049-0.032c-0.326,2.613-0.651,5.226-0.976,7.839
			c-0.363,2.919-1.203,6.27,0.044,9.091C441.365,345.749,448.442,345.493,450.654,340.559z"/>
	</g>
	<g>
		<g>
			<path style="fill:#E4A4CE;" d="M405.123,91.31c-0.289,0.694-0.609,1.384-0.962,2.08c-0.403,0.779-0.831,1.568-1.303,2.357
				c-0.234,0.391-0.471,0.79-0.727,1.181c-10.472,15.207-26.524,17.617-39.551,12.567l-17.486,14.339l5.21-22.065l0.03-0.135
				c-0.262-0.259-0.529-0.531-0.787-0.799c-0.249-0.264-0.499-0.528-0.744-0.8c-0.009-0.004-0.013-0.017-0.022-0.021
				c-8.353-9.349-11.288-23.141-2.185-37.316c12.148-17.615,31.801-18.061,45.53-9.599c3.13,1.925,5.956,4.325,8.31,7.08
				c1.041,1.213,1.984,2.499,2.827,3.843c0.181,0.296,0.354,0.588,0.527,0.88c0.845,1.452,1.568,2.964,2.15,4.549
				c0.052,0.141,0.103,0.281,0.155,0.422c0.254,0.712,0.483,1.433,0.673,2.168c0.058,0.218,0.117,0.436,0.171,0.663
				c0.005,0.013,0.009,0.026,0.005,0.034c0.064,0.252,0.123,0.513,0.179,0.783c0.181,0.848,0.315,1.705,0.41,2.577
				c0.033,0.227,0.053,0.46,0.073,0.691c0.001,0.043,0.011,0.09,0.013,0.133c0.021,0.254,0.041,0.507,0.049,0.765
				c0.025,0.404,0.042,0.804,0.045,1.209c0.005,0.31-0.003,0.625-0.01,0.94c-0.003,0.19-0.006,0.379-0.017,0.565
				c-0.002,0.211-0.017,0.427-0.032,0.643c-0.159,2.409-0.623,4.879-1.443,7.385c-0.074,0.252-0.157,0.5-0.253,0.753
				c-0.182,0.531-0.386,1.063-0.615,1.604C405.276,90.957,405.204,91.135,405.123,91.31z"/>
			<g>
				<path style="fill:#373C70;" d="M349.492,130.121c-0.35,0-0.696-0.146-0.942-0.428l-4.397-5.036
					c-0.223-0.255-0.332-0.589-0.305-0.926c0.028-0.337,0.192-0.648,0.453-0.863l17.486-14.339c0.35-0.286,0.825-0.36,1.245-0.199
					c11.345,4.399,27.303,3.526,38.069-12.11c0.227-0.35,0.456-0.733,0.681-1.109c0.488-0.819,0.9-1.564,1.261-2.282
					c0.34-0.669,0.65-1.34,0.925-2c0.092-0.2,0.155-0.358,0.216-0.509c0.226-0.534,0.419-1.039,0.592-1.543
					c0.098-0.261,0.171-0.479,0.236-0.701c0.773-2.361,1.237-4.743,1.395-7.115c0.015-0.205,0.024-0.393,0.029-0.594
					c0.013-0.211,0.015-0.381,0.018-0.551c0.008-0.309,0.016-0.607,0.011-0.901c-0.004-0.39-0.02-0.768-0.043-1.15
					c-0.01-0.277-0.028-0.508-0.048-0.741c-0.009-0.075-0.015-0.143-0.017-0.207c-0.017-0.158-0.032-0.351-0.06-0.539
					c-0.098-0.893-0.229-1.718-0.395-2.497l-0.054-0.242c-0.036-0.162-0.071-0.324-0.113-0.49c-0.01-0.035-0.017-0.071-0.023-0.106
					c-0.048-0.197-0.099-0.387-0.149-0.578c-0.174-0.671-0.384-1.345-0.644-2.072c-0.05-0.156-0.088-0.259-0.129-0.356
					c-0.564-1.529-1.256-2.993-2.079-4.406c-0.169-0.301-0.34-0.58-0.507-0.848c-0.812-1.294-1.726-2.537-2.715-3.69
					c-0.448-0.523-0.391-1.309,0.13-1.759c0.52-0.45,1.308-0.396,1.76,0.122l4.156,4.755c9.662,11.047,10.429,25.447,2.05,38.519
					c-0.008,0.011-0.016,0.023-0.023,0.034c-11.373,16.519-28.158,17.729-40.349,13.29l-16.929,13.882
					C350.052,130.027,349.77,130.121,349.492,130.121z M346.884,123.983l2.752,3.152l16.549-13.571
					c0.35-0.286,0.824-0.36,1.244-0.199c11.343,4.388,27.298,3.513,38.063-12.102c6.091-9.513,6.958-19.769,2.709-28.659
					c0.032,0.133,0.061,0.266,0.09,0.397l0.054,0.24c0.188,0.879,0.332,1.789,0.434,2.72c0.028,0.19,0.05,0.43,0.071,0.671
					c0.002,0.027,0.008,0.101,0.009,0.128c0.006,0.044,0.012,0.088,0.013,0.133c0.019,0.204,0.04,0.477,0.048,0.756
					c0.025,0.386,0.043,0.808,0.047,1.234c0.005,0.319-0.003,0.651-0.011,0.983c-0.003,0.198-0.007,0.407-0.021,0.612
					c-0.004,0.194-0.016,0.42-0.032,0.655c-0.17,2.572-0.676,5.16-1.502,7.683c-0.071,0.247-0.164,0.524-0.272,0.807
					c-0.177,0.52-0.392,1.079-0.632,1.647c-0.067,0.17-0.148,0.369-0.239,0.563c-0.278,0.672-0.615,1.401-0.981,2.121
					c-0.386,0.768-0.826,1.564-1.344,2.432c-0.243,0.408-0.489,0.819-0.752,1.222c-11.397,16.549-28.18,17.753-40.363,13.309
					L346.884,123.983z M406.532,101.956h0.01H406.532z"/>
			</g>
			<g>
				<path style="fill:#373C70;" d="M393.935,49.439c-0.241,0-0.485-0.07-0.7-0.215c-0.571-0.388-0.721-1.165-0.333-1.736
					l12.06-17.785c0.386-0.571,1.164-0.72,1.735-0.333c0.571,0.388,0.721,1.164,0.333,1.736l-12.06,17.785
					C394.729,49.247,394.336,49.439,393.935,49.439z"/>
			</g>
			<g>
				<path style="fill:#373C70;" d="M386.512,45.218c-0.007,0-0.014,0-0.022,0c-0.689-0.012-1.24-0.581-1.228-1.271l0.322-19.081
					c0.012-0.69,0.533-1.228,1.271-1.229c0.689,0.012,1.24,0.581,1.229,1.271l-0.322,19.081
					C387.75,44.672,387.192,45.218,386.512,45.218z"/>
			</g>
			<g>
				<path style="fill:#373C70;" d="M378.332,42.912c-0.497,0-0.968-0.299-1.162-0.79l-5.002-12.618
					c-0.254-0.642,0.06-1.368,0.701-1.622c0.642-0.255,1.368,0.06,1.623,0.702l5.002,12.617c0.254,0.642-0.06,1.368-0.701,1.623
					C378.641,42.883,378.485,42.912,378.332,42.912z"/>
			</g>
			<g>
				<path style="fill:#373C70;" d="M400.64,54.775c-0.354,0-0.707-0.15-0.954-0.442c-0.447-0.526-0.382-1.315,0.145-1.762
					l13.781-11.682c0.528-0.446,1.316-0.381,1.762,0.146c0.447,0.526,0.382,1.315-0.145,1.762l-13.781,11.682
					C401.213,54.678,400.926,54.775,400.64,54.775z"/>
			</g>
			<g>
				<path style="fill:#373C70;" d="M405.527,58.972c-0.457,0-0.897-0.252-1.117-0.689c-0.311-0.617-0.063-1.368,0.555-1.679
					l7.116-3.583c0.617-0.31,1.368-0.063,1.679,0.554c0.311,0.617,0.063,1.368-0.554,1.679l-7.118,3.584
					C405.908,58.929,405.716,58.972,405.527,58.972z"/>
			</g>
		</g>
		<path style="fill:#373C70;" d="M378.581,77.733c1.544-3.609,2.835-7.451,3.221-11.377c0.391-3.976-0.876-7.97-4.431-10.129
			c-3.007-1.826-6.747-1.565-9.576,0.311c-6.638,3.133-12.2,8.555-15.505,15.113c-3.196,6.341-5.12,15.345,0.756,20.832
			c2.701,2.523,6.415,3.22,9.952,2.37c3.668-0.881,6.712-3.417,9.049-6.284C374.717,85.293,376.919,81.618,378.581,77.733z
			 M369.871,84.905c-1.778,2.366-4.007,4.761-6.864,5.775c-2.415,0.857-5.195,0.783-7.151-1.044
			c-4.471-4.175-2.453-11.314-0.076-16.032c2.639-5.237,6.758-9.531,11.798-12.441c0.522,0.065,1.077-0.088,1.558-0.579
			c0.22-0.225,0.457-0.427,0.705-0.607c0.019-0.009,0.034-0.024,0.053-0.034c1.758-1.243,4.108-1.341,5.92,0.035
			c2.168,1.646,2.298,4.584,1.896,7.052C376.665,73.431,373.754,79.737,369.871,84.905z"/>
		<path style="fill:#373C70;" d="M395.036,91.829c0.3-3.799-0.423-8.742-4.718-9.959c-3.039-0.861-5.937,0.845-8.285,2.864
			l8.642-22.046c0.395-1.007-0.516-2.186-1.465-2.42c-1.163-0.287-2.024,0.455-2.42,1.465l-14.48,36.938
			c-0.395,1.007,0.516,2.186,1.465,2.42c1.165,0.287,2.022-0.456,2.42-1.465c1.316-3.334,3.268-6.455,5.666-9.114
			c1.127-1.25,2.35-2.494,3.709-3.492c0.931-0.684,2.25-1.553,3.469-1.344c2.743,0.471,2.133,5.395,1.886,7.264
			c-0.475,3.603-1.669,7.021-3.489,10.161c-1.291,2.228,2.2,4.181,3.491,1.953C393.279,100.997,394.667,96.499,395.036,91.829z"/>
	</g>
	<g>
		<g>
			<g>
				<path style="fill:#373C70;" d="M364.956,277.835c-0.394,0-0.778-0.186-1.02-0.526c-0.368-0.517-0.289-1.229,0.184-1.654
					l23.528-21.118l-14.117-7.275c-0.484-0.25-0.752-0.784-0.66-1.321l1.928-11.31c-0.551-0.168-1.099-0.343-1.641-0.525
					c-0.385-0.121-0.785-0.258-1.185-0.397l-0.35-0.125c-0.319-0.115-0.635-0.229-0.95-0.351c-0.053-0.015-0.112-0.035-0.179-0.063
					c-0.284-0.101-0.569-0.21-0.863-0.328c-0.276-0.107-0.57-0.219-0.863-0.342c-20.3-8.203-30.673-23.2-28.446-41.139
					c3.745-28.251,34.334-38.413,61.173-35.896c8.125,0.756,16.095,2.696,23.05,5.609c3.28,1.377,6.355,2.971,9.141,4.738
					c0.287,0.184,0.568,0.365,0.852,0.556c1.482,0.97,2.957,2.063,4.372,3.239c0.382,0.32,0.71,0.595,1.029,0.88
					c1.147,1.004,2.262,2.098,3.305,3.244c0.264,0.294,0.485,0.541,0.698,0.789c0.321,0.362,0.635,0.739,0.94,1.127
					c0.171,0.209,0.344,0.426,0.508,0.653c0.664,0.847,1.33,1.8,1.95,2.796l0.075,0.12c0.118,0.189,0.24,0.385,0.349,0.58
					c0.197,0.314,0.414,0.684,0.611,1.064c0.188,0.344,0.389,0.711,0.569,1.08c0.268,0.512,0.502,1.007,0.697,1.485
					c0.133,0.278,0.275,0.621,0.414,0.958l0.066,0.161c0.166,0.403,0.321,0.803,0.457,1.214c0.066,0.184,0.146,0.412,0.214,0.63
					c0.108,0.303,0.221,0.652,0.324,1.012c0.08,0.248,0.164,0.547,0.236,0.846c0.026,0.076,0.066,0.236,0.105,0.396
					c0.068,0.252,0.134,0.527,0.191,0.806c0.037,0.117,0.065,0.236,0.084,0.355c0.056,0.252,0.109,0.512,0.155,0.763
					c0.148,0.706,0.271,1.477,0.368,2.323c0.036,0.249,0.064,0.53,0.083,0.81c0.02,0.12,0.044,0.319,0.053,0.537
					c0.025,0.221,0.041,0.443,0.048,0.675c0.146,2.208,0.073,4.567-0.218,6.962c-0.001,0.004-0.002,0.009-0.002,0.014
					c-3.23,24.309-26.52,34.552-47.373,36.058l-8.964,6.485l10.729,8.64c0.324,0.262,0.497,0.667,0.461,1.082
					c-0.036,0.415-0.276,0.785-0.642,0.986l-40.871,22.543C365.368,277.784,365.161,277.835,364.956,277.835z M375.489,245.457
					l14.915,7.688c0.366,0.189,0.615,0.544,0.668,0.952c0.052,0.407-0.1,0.814-0.405,1.09l-16.732,15.017l29.657-16.357
					l-10.553-8.498c-0.304-0.244-0.476-0.616-0.466-1.006c0.011-0.39,0.201-0.752,0.518-0.98l10.579-7.653
					c0.19-0.138,0.414-0.219,0.648-0.234c19.956-1.347,42.366-10.963,45.421-33.911c0.271-2.239,0.34-4.438,0.202-6.537
					c-0.007-0.22-0.018-0.383-0.039-0.547c-0.005-0.04-0.008-0.079-0.009-0.119c-0.003-0.145-0.023-0.282-0.041-0.412
					c-0.023-0.305-0.046-0.523-0.076-0.743c-0.094-0.801-0.205-1.498-0.344-2.164c-0.049-0.268-0.101-0.511-0.151-0.745
					c-0.008-0.033-0.014-0.066-0.017-0.099c-0.022-0.059-0.039-0.12-0.052-0.182c-0.051-0.251-0.108-0.501-0.177-0.752
					c-0.034-0.143-0.059-0.249-0.092-0.353c-0.08-0.321-0.146-0.558-0.22-0.786c-0.101-0.349-0.197-0.649-0.304-0.949
					c-0.073-0.23-0.14-0.421-0.206-0.605c-0.128-0.387-0.262-0.73-0.403-1.074l-0.067-0.161c-0.125-0.302-0.251-0.609-0.392-0.909
					c-0.19-0.461-0.392-0.887-0.639-1.358c-0.18-0.365-0.362-0.699-0.546-1.035c-0.181-0.347-0.366-0.661-0.561-0.974
					c-0.118-0.211-0.217-0.366-0.312-0.517l-0.079-0.127c-0.573-0.921-1.188-1.801-1.825-2.615c-0.165-0.227-0.31-0.407-0.464-0.595
					c-0.287-0.366-0.569-0.705-0.87-1.044c-0.214-0.249-0.425-0.483-0.635-0.718c-1.008-1.108-2.055-2.136-3.141-3.086
					c-0.308-0.276-0.617-0.534-0.926-0.792c-1.388-1.154-2.787-2.19-4.202-3.118c-0.281-0.189-0.547-0.359-0.813-0.53
					c-2.663-1.689-5.613-3.218-8.765-4.542c-6.722-2.816-14.439-4.692-22.315-5.425c-25.686-2.407-54.934,7.124-58.461,33.725
					c-2.075,16.717,7.735,30.756,26.918,38.508c0.285,0.119,0.556,0.224,0.826,0.327c0.292,0.117,0.557,0.219,0.821,0.312
					c0.013,0.005,0.025,0.01,0.038,0.015c0.037,0.01,0.074,0.023,0.11,0.037c0.316,0.123,0.633,0.236,0.953,0.352l0.34,0.123
					c0.36,0.124,0.737,0.255,1.124,0.376c0.882,0.297,1.756,0.566,2.631,0.816c0.614,0.176,0.997,0.786,0.888,1.415L375.489,245.457
					z M371.487,230.875l0.001,0.001L371.487,230.875z M371.334,230.821L371.334,230.821L371.334,230.821z M450.979,201.721h0.01
					H450.979z"/>
			</g>
			<g>
				<g>
					<g>
						<path style="fill:#ADD1C7;" d="M438.584,206.571c-1.242-0.709-1.763-2.192-1.278-3.35c0.494-1.154,1.871-1.832,3.278-1.453
							c1.377,0.368,2.174,1.961,1.54,3.46C441.494,206.726,439.844,207.292,438.584,206.571z"/>
					</g>
					<g>
						<path style="fill:#ADD1C7;" d="M432.023,214.607c-0.476-0.543-0.687-1.218-0.674-1.863c0-0.661,0.234-1.28,0.703-1.748
							c0.905-0.938,2.481-1.018,3.603-0.122c1.13,0.903,1.229,2.631,0.133,3.767c-0.549,0.55-1.267,0.822-1.942,0.821
							C433.155,215.446,432.497,215.147,432.023,214.607z"/>
					</g>
					<g>
						<path style="fill:#ADD1C7;" d="M423.375,220.385c-0.647-1.307-0.171-2.818,0.981-3.505c1.173-0.653,2.706-0.319,3.526,0.888
							c0.802,1.177,0.434,2.876-0.909,3.628C425.648,222.182,424.006,221.663,423.375,220.385z"/>
					</g>
					<g>
						<path style="fill:#ADD1C7;" d="M413.654,224.117c-0.378-1.402,0.389-2.81,1.68-3.24c1.296-0.416,2.743,0.263,3.27,1.607
							c0.526,1.339-0.196,2.886-1.643,3.352C415.52,226.315,414.026,225.498,413.654,224.117z"/>
					</g>
					<g>
						<path style="fill:#ADD1C7;" d="M403.415,226.03c-0.139-1.443,0.86-2.691,2.215-2.903c1.361-0.172,2.667,0.73,2.945,2.16
							c0.273,1.399-0.703,2.814-2.2,3.006C404.882,228.524,403.552,227.456,403.415,226.03z"/>
					</g>
					<g>
						<path style="fill:#ADD1C7;" d="M393,226.302c0.083-1.442,1.265-2.563,2.641-2.529c1.375,0.001,2.527,1.164,2.573,2.592
							c0.046,1.453-1.137,2.63-2.642,2.627C394.068,228.956,392.917,227.738,393,226.302z"/>
					</g>
					<g>
						<path style="fill:#ADD1C7;" d="M382.666,224.977c0.302-1.405,1.635-2.315,2.991-2.095c1.354,0.233,2.324,1.513,2.151,2.955
							c-0.17,1.421-1.523,2.448-3.008,2.194C383.313,227.788,382.362,226.39,382.666,224.977z"/>
					</g>
					<g>
						<path style="fill:#ADD1C7;" d="M372.672,222.037c0.531-1.328,2.005-2.033,3.291-1.576c1.297,0.432,2.037,1.879,1.644,3.254
							c-0.399,1.397-1.893,2.165-3.328,1.686C372.852,224.896,372.133,223.385,372.672,222.037z"/>
					</g>
					<g>
						<path style="fill:#ADD1C7;" d="M363.38,217.34c0.784-1.197,2.354-1.602,3.522-0.924c1.177,0.667,1.645,2.207,1.011,3.495
							c-0.639,1.298-2.26,1.796-3.59,1.043C363.001,220.188,362.585,218.555,363.38,217.34z"/>
					</g>
					<g>
						<path style="fill:#ADD1C7;" d="M355.361,210.716c1.071-0.967,2.651-0.96,3.621-0.057c0.975,0.898,1.074,2.505,0.178,3.622
							c-0.907,1.132-2.602,1.242-3.744,0.189C354.278,213.408,354.293,211.681,355.361,210.716z"/>
					</g>
					<g>
						<path style="fill:#ADD1C7;" d="M349.647,202.057c1.338-0.535,2.812-0.02,3.418,1.106c0.317,0.568,0.376,1.218,0.197,1.853
							c-0.154,0.618-0.536,1.217-1.135,1.618c-0.599,0.401-1.309,0.516-1.987,0.35c-0.651-0.181-1.279-0.642-1.662-1.331
							C347.719,204.241,348.308,202.593,349.647,202.057z"/>
					</g>
					<g>
						<path style="fill:#ADD1C7;" d="M347.792,191.885c0.72,0.038,1.368,0.355,1.835,0.794c0.455,0.443,0.749,1.007,0.804,1.639
							c0.078,1.239-0.882,2.471-2.288,2.758c-0.708,0.132-1.42-0.042-1.947-0.481c-0.528-0.435-0.946-1.125-0.974-1.932
							c-0.066-0.804,0.223-1.543,0.714-2.044C346.416,192.113,347.073,191.847,347.792,191.885z"/>
					</g>
					<g>
						<path style="fill:#ADD1C7;" d="M350.668,181.953c1.243,0.71,1.763,2.192,1.278,3.35c-0.494,1.154-1.871,1.832-3.278,1.453
							c-1.377-0.368-2.174-1.961-1.54-3.46C347.757,181.799,349.408,181.233,350.668,181.953z"/>
					</g>
					<g>
						<path style="fill:#ADD1C7;" d="M357.229,173.918c0.476,0.543,0.687,1.218,0.674,1.863c0,0.661-0.234,1.28-0.703,1.748
							c-0.905,0.938-2.481,1.018-3.603,0.122c-1.131-0.903-1.229-2.631-0.133-3.767c0.549-0.551,1.267-0.822,1.942-0.821
							C356.097,173.078,356.755,173.377,357.229,173.918z"/>
					</g>
					<g>
						<path style="fill:#ADD1C7;" d="M365.877,168.139c0.647,1.307,0.171,2.819-0.981,3.505c-1.172,0.653-2.706,0.319-3.526-0.888
							c-0.802-1.176-0.434-2.876,0.909-3.628C363.604,166.342,365.246,166.862,365.877,168.139z"/>
					</g>
					<g>
						<path style="fill:#ADD1C7;" d="M375.597,164.408c0.378,1.402-0.389,2.81-1.68,3.24c-1.296,0.415-2.743-0.263-3.27-1.607
							c-0.526-1.339,0.196-2.886,1.643-3.352C373.732,162.209,375.226,163.027,375.597,164.408z"/>
					</g>
					<g>
						<path style="fill:#ADD1C7;" d="M385.837,162.495c0.139,1.443-0.86,2.691-2.215,2.903c-1.361,0.173-2.667-0.729-2.945-2.16
							c-0.273-1.399,0.703-2.814,2.2-3.006C384.369,160,385.7,161.068,385.837,162.495z"/>
					</g>
					<g>
						<path style="fill:#ADD1C7;" d="M396.252,162.223c-0.083,1.442-1.265,2.563-2.641,2.529c-1.375-0.001-2.527-1.164-2.573-2.592
							c-0.046-1.453,1.137-2.63,2.642-2.627C395.184,159.569,396.335,160.787,396.252,162.223z"/>
					</g>
					<g>
						<path style="fill:#ADD1C7;" d="M406.586,163.548c-0.302,1.405-1.635,2.315-2.991,2.095c-1.354-0.232-2.324-1.513-2.151-2.955
							c0.17-1.421,1.523-2.448,3.008-2.194C405.939,160.737,406.89,162.135,406.586,163.548z"/>
					</g>
					<g>
						<path style="fill:#ADD1C7;" d="M416.579,166.488c-0.531,1.328-2.004,2.033-3.291,1.576c-1.297-0.432-2.037-1.879-1.644-3.254
							c0.399-1.397,1.893-2.165,3.328-1.687C416.4,163.629,417.119,165.139,416.579,166.488z"/>
					</g>
					<g>
						<path style="fill:#ADD1C7;" d="M425.872,171.184c-0.784,1.197-2.354,1.602-3.522,0.924c-1.177-0.667-1.645-2.207-1.011-3.495
							c0.639-1.299,2.26-1.796,3.59-1.043C426.251,168.336,426.667,169.97,425.872,171.184z"/>
					</g>
					<g>
						<path style="fill:#ADD1C7;" d="M433.89,177.809c-1.07,0.967-2.651,0.96-3.621,0.057c-0.975-0.898-1.073-2.505-0.178-3.622
							c0.907-1.132,2.602-1.242,3.745-0.189C434.974,175.117,434.959,176.844,433.89,177.809z"/>
					</g>
					<g>
						<path style="fill:#ADD1C7;" d="M439.604,186.467c-1.338,0.535-2.812,0.02-3.418-1.106c-0.317-0.568-0.376-1.218-0.197-1.853
							c0.154-0.618,0.536-1.217,1.135-1.618c0.599-0.401,1.309-0.516,1.987-0.35c0.652,0.181,1.279,0.641,1.662,1.331
							C441.533,184.284,440.943,185.932,439.604,186.467z"/>
					</g>
					<g>
						<path style="fill:#ADD1C7;" d="M441.459,196.639c-0.72-0.038-1.368-0.355-1.835-0.794c-0.456-0.443-0.749-1.007-0.804-1.639
							c-0.078-1.239,0.882-2.471,2.288-2.758c0.708-0.132,1.42,0.042,1.947,0.481c0.529,0.435,0.946,1.125,0.974,1.932
							c0.066,0.804-0.223,1.543-0.714,2.045C442.835,196.411,442.179,196.678,441.459,196.639z"/>
					</g>
				</g>
			</g>
			<g>
				<path style="fill:#373C70;" d="M371.128,280.391c-0.162,0-0.324-0.031-0.478-0.095l-6.173-2.556
					c-0.443-0.185-0.743-0.606-0.77-1.086c-0.026-0.479,0.224-0.932,0.645-1.164l39.24-21.644l-10.553-8.498
					c-0.304-0.244-0.476-0.616-0.466-1.006c0.011-0.39,0.201-0.752,0.518-0.98l10.579-7.653c0.19-0.138,0.414-0.219,0.648-0.234
					c19.958-1.347,42.371-10.964,45.422-33.918c0.271-2.228,0.339-4.43,0.201-6.53c-0.007-0.22-0.018-0.383-0.039-0.547
					c-0.005-0.04-0.008-0.079-0.009-0.119c-0.003-0.145-0.023-0.282-0.041-0.412c-0.023-0.305-0.046-0.523-0.076-0.743
					c-0.094-0.801-0.205-1.498-0.344-2.164c-0.05-0.282-0.101-0.513-0.151-0.745c-0.008-0.033-0.014-0.066-0.017-0.099
					c-0.022-0.059-0.039-0.12-0.052-0.182c-0.051-0.251-0.108-0.501-0.177-0.752c-0.034-0.143-0.059-0.249-0.092-0.353
					c-0.081-0.324-0.147-0.555-0.223-0.795c-0.098-0.34-0.194-0.64-0.301-0.94c-0.073-0.23-0.14-0.421-0.206-0.605
					c-0.128-0.387-0.262-0.73-0.403-1.074c-0.149-0.365-0.294-0.718-0.459-1.07c-0.19-0.461-0.392-0.887-0.639-1.358
					c-0.18-0.365-0.362-0.699-0.546-1.035c-0.181-0.347-0.366-0.661-0.561-0.974c-0.137-0.243-0.249-0.43-0.368-0.609
					c-0.596-0.956-1.21-1.836-1.848-2.65c-0.159-0.219-0.298-0.4-0.444-0.572c-0.307-0.389-0.589-0.728-0.89-1.067
					c-0.214-0.249-0.425-0.483-0.635-0.718c-1.008-1.108-2.055-2.136-3.141-3.086c-0.308-0.276-0.617-0.534-0.926-0.792
					c-1.388-1.154-2.787-2.19-4.202-3.118c-0.281-0.189-0.547-0.359-0.813-0.53c-2.663-1.689-5.613-3.218-8.765-4.542
					c-0.635-0.267-0.935-0.998-0.669-1.634c0.266-0.635,0.998-0.939,1.633-0.672l5.979,2.484
					c19.898,8.262,30.059,23.163,27.873,40.884c0,0.004-0.001,0.008-0.001,0.012c-3.229,24.309-26.519,34.552-47.372,36.058
					l-8.964,6.484l10.718,8.631c0.324,0.262,0.497,0.667,0.461,1.082c-0.036,0.415-0.276,0.785-0.642,0.986l-40.861,22.543
					C371.545,280.339,371.337,280.391,371.128,280.391z M367.835,276.424l3.216,1.332l38.704-21.353l-2.693-2.169
					c-0.059,0.381-0.292,0.715-0.632,0.902L367.835,276.424z M395.882,244.429l2.88,2.319c0.052-0.327,0.23-0.624,0.503-0.82
					l10.579-7.653c0.19-0.138,0.414-0.219,0.649-0.234c19.957-1.347,42.368-10.962,45.42-33.912
					c1.433-11.635-2.906-21.993-12.16-29.825c0.063,0.073,0.126,0.145,0.188,0.217c0.321,0.362,0.635,0.739,0.94,1.127
					c0.158,0.184,0.338,0.418,0.508,0.653c0.664,0.847,1.33,1.8,1.95,2.796c0.137,0.203,0.285,0.451,0.424,0.7
					c0.197,0.314,0.414,0.684,0.611,1.064c0.188,0.344,0.389,0.711,0.569,1.08c0.268,0.512,0.502,1.007,0.697,1.485
					c0.158,0.334,0.32,0.725,0.483,1.126c0.163,0.395,0.318,0.795,0.454,1.207c0.066,0.184,0.146,0.412,0.214,0.63
					c0.108,0.303,0.221,0.652,0.324,1.012c0.083,0.265,0.165,0.55,0.236,0.846c0.026,0.076,0.066,0.236,0.105,0.396
					c0.068,0.252,0.134,0.527,0.191,0.806c0.037,0.117,0.065,0.236,0.084,0.355c0.056,0.253,0.11,0.507,0.156,0.77
					c0.147,0.698,0.27,1.469,0.368,2.315c0.035,0.249,0.063,0.53,0.082,0.81c0.02,0.12,0.044,0.32,0.053,0.537
					c0.025,0.221,0.041,0.443,0.048,0.675c0.146,2.208,0.073,4.567-0.218,6.962c-3.232,24.322-26.522,34.565-47.375,36.071
					L395.882,244.429z M457.152,204.287h0.01H457.152z"/>
			</g>
			<g>
				<path style="fill:#373C70;" d="M367.108,154.686c-0.577,0-1.095-0.401-1.221-0.988l-3.493-16.251
					c-0.146-0.675,0.284-1.34,0.959-1.485c0.681-0.145,1.34,0.285,1.484,0.96l3.493,16.251c0.145,0.675-0.284,1.339-0.959,1.485
					C367.283,154.676,367.195,154.686,367.108,154.686z"/>
			</g>
			<g>
				<path style="fill:#373C70;" d="M354.76,158.111c-0.443,0-0.873-0.237-1.1-0.654l-6.127-11.3
					c-0.329-0.607-0.104-1.366,0.503-1.695c0.607-0.329,1.365-0.104,1.694,0.503l6.127,11.3c0.329,0.607,0.104,1.366-0.503,1.695
					C355.166,158.062,354.962,158.111,354.76,158.111z"/>
			</g>
			<g>
				<path style="fill:#373C70;" d="M345.719,166.317c-0.222,0-0.446-0.059-0.649-0.183l-7.259-4.427
					c-0.59-0.359-0.776-1.129-0.417-1.718c0.359-0.589,1.131-0.774,1.718-0.417l7.259,4.427c0.59,0.359,0.776,1.129,0.417,1.718
					C346.552,166.104,346.139,166.317,345.719,166.317z"/>
			</g>
			<g>
				<path style="fill:#373C70;" d="M381.338,150.582c-0.631,0-1.174-0.477-1.241-1.119l-1.33-12.649
					c-0.072-0.686,0.426-1.302,1.112-1.374c0.693-0.073,1.302,0.426,1.374,1.112l1.33,12.649c0.072,0.687-0.426,1.302-1.112,1.374
					C381.426,150.58,381.382,150.582,381.338,150.582z"/>
			</g>
			<g>
				<path style="fill:#373C70;" d="M391.114,150.315c-0.107,0-0.214-0.014-0.321-0.042c-0.667-0.177-1.064-0.861-0.888-1.529
					l2.313-8.729c0.178-0.668,0.865-1.063,1.528-0.888c0.667,0.177,1.064,0.861,0.888,1.529l-2.314,8.729
					C392.173,149.945,391.667,150.315,391.114,150.315z"/>
			</g>
		</g>
		<path style="fill:#373C70;" d="M383.045,206.714c-3.887-0.37-7.773-0.74-11.66-1.11c1.052-10.245,2.105-20.491,3.157-30.736
			c0.263-2.563-3.732-2.758-3.995-0.203c-1.046,10.187-2.093,20.374-3.139,30.56c-1.986-0.189-3.972-0.378-5.958-0.567
			c-2.565-0.244-2.762,3.751-0.203,3.995c7.198,0.685,14.397,1.37,21.595,2.056C385.407,210.953,385.604,206.958,383.045,206.714z"
			/>
		<path style="fill:#373C70;" d="M406.179,177.82c-2.625-2.746-6.422-4.648-10.285-4.423c-2.145,0.125-4.24,0.825-6.004,2.007
			c-0.43-0.003-0.876,0.16-1.278,0.574c-4.901,5.051-7.247,12.075-6.383,19.061c0.824,6.663,5.165,13.215,12.329,13.802
			c7.051,0.579,13.033-4.394,15.27-10.82C412.12,191.433,411.122,182.989,406.179,177.82z M406.475,195.275
			c-1.261,4.973-5.035,9.408-10.473,9.605c-5.477,0.198-8.704-4.463-9.658-9.375c-0.889-4.577,0.085-9.451,2.521-13.414
			c0.387-0.12,0.745-0.39,1.005-0.87c2.645-4.88,9.013-4.708,12.786-1.264C406.731,183.674,407.79,190.093,406.475,195.275z"/>
		<path style="fill:#373C70;" d="M428.652,210.492c-3.877-0.252-7.754-0.503-11.631-0.755c1.25-10.606,2.499-21.212,3.749-31.818
			c0.301-2.558-3.695-2.75-3.995-0.203c-1.248,10.587-2.495,21.174-3.742,31.762l-2.831-0.184c-2.57-0.167-2.774,3.828-0.203,3.995
			c6.15,0.399,12.3,0.799,18.45,1.198C431.019,214.654,431.223,210.659,428.652,210.492z"/>
	</g>
	<g>
		<g>
			<g>
				<path style="fill:#B8A7DE;" d="M122.965,153.755c0.345,0.816,0.654,1.668,0.909,2.543l29.448,87.235
					c3.518,12.02-3.048,24.772-14.462,28.065l-26.421,7.635c-5.692,1.645-9.628,7.169-9.578,13.441l0.107,15.993l6.672-1.924
					l10.303-2.979l-2.864-11.366l31.762,13.191l-21.255,28.493l-3.34-13.256l-0.483-1.908l-25.397,7.337
					c-0.281,0.077-0.553,0.15-0.824,0.202l-0.035,0.015c-0.262,0.048-0.515,0.092-0.763,0.124c-0.039,0.006-0.07,0.009-0.1,0.011
					c-0.269,0.03-0.539,0.061-0.816,0.073c-0.143,0.008-0.286,0.016-0.433,0.016c-0.039,0.006-0.073,0-0.113,0.006
					c-0.095-0.002-0.19-0.003-0.284-0.005c-5.378-0.108-10.221-4.092-11.439-9.986l-3.372-16.222
					c-1.145-5.548-5.325-9.917-10.609-10.692c-8.041-1.188-14.996-7.372-17.209-16.159c-0.111-0.434-0.211-0.894-0.298-1.348
					l-19.7-90.042c-2.201-11.479,4.361-22.829,14.985-25.892l51.26-14.809c1.947-0.563,3.909-0.818,5.84-0.777
					c0.211,0.005,0.422,0.01,0.625,0.018c0.632,0.036,1.254,0.097,1.869,0.192c0.257,0.038,0.517,0.085,0.777,0.131
					c0.695,0.135,1.383,0.303,2.056,0.51c0.229,0.071,0.461,0.15,0.693,0.23c0.254,0.081,0.515,0.179,0.767,0.282
					c0.337,0.129,0.669,0.271,1.005,0.422c0.247,0.115,0.486,0.234,0.737,0.357c0.267,0.138,0.535,0.276,0.797,0.426
					c0.262,0.15,0.528,0.31,0.785,0.473c0.465,0.284,0.92,0.593,1.352,0.923c0.116,0.076,0.223,0.157,0.321,0.24
					c0.185,0.141,0.374,0.291,0.554,0.445c0.226,0.187,0.451,0.374,0.668,0.564c0.51,0.464,1.01,0.953,1.481,1.475
					c0.174,0.188,0.338,0.38,0.503,0.571c0.205,0.237,0.405,0.487,0.592,0.732c0.128,0.155,0.248,0.313,0.358,0.476
					c0.108,0.132,0.211,0.277,0.302,0.416c0.02,0.023,0.031,0.049,0.051,0.072c0.272,0.397,0.54,0.807,0.79,1.224
					c0.066,0.108,0.129,0.207,0.187,0.318c0.117,0.202,0.233,0.403,0.341,0.609c0.182,0.331,0.355,0.665,0.514,1.016
					C122.712,153.183,122.841,153.463,122.965,153.755z"/>
			</g>
		</g>
		<path style="fill:#373C70;" d="M70.111,212.949c-3.236,2.635-6.471,5.269-9.707,7.904c-1.772-13.744-3.544-27.489-5.316-41.233
			c-0.127-0.988-1.31-1.588-2.211-1.379c-1.051,0.244-1.507,1.22-1.379,2.212l5.714,44.325c0.193,1.5,2.088,1.716,3.061,0.924
			c4.123-3.357,8.246-6.714,12.369-10.072C74.481,214.132,71.945,211.455,70.111,212.949z"/>
		<path style="fill:#373C70;" d="M91.781,207.794c-0.743-0.786-1.811-0.681-2.606-0.075c-2.519,1.92-5.037,3.84-7.556,5.76
			l-2.883-13.452c0.072-0.031,0.146-0.058,0.215-0.102c2.192-1.384,4.384-2.768,6.576-4.152c0.813-0.513,1.278-1.606,0.742-2.499
			c-0.486-0.81-1.627-1.293-2.499-0.742c-1.95,1.231-3.899,2.462-5.849,3.693c-1.391-6.49-2.781-12.98-4.172-19.47
			c1.669-0.895,3.337-1.79,5.006-2.685c0.85-0.456,1.253-1.648,0.742-2.499c-0.516-0.859-1.589-1.23-2.499-0.742
			c-1.67,0.896-3.341,1.792-5.011,2.687c-1.158-0.205-2.558,0.667-2.235,2.175c2.959,13.807,5.918,27.613,8.876,41.42
			c0.317,1.481,2,1.733,3.061,0.924l10.017-7.636C92.497,209.796,92.413,208.463,91.781,207.794z"/>
		<path style="fill:#373C70;" d="M100.521,167.837c-0.487-0.901-1.607-1.19-2.499-0.742c-4.172,2.092-8.344,4.185-12.516,6.277
			c-0.89,0.446-1.205,1.644-0.742,2.499c0.487,0.901,1.606,1.19,2.499,0.742c1.09-0.547,2.181-1.094,3.272-1.641
			c2.631,11.695,5.263,23.389,7.894,35.083c0.521,2.315,4.112,1.485,3.591-0.832c-2.697-11.984-5.393-23.969-8.09-35.954
			c1.95-0.978,3.899-1.956,5.849-2.934C100.669,169.889,100.984,168.692,100.521,167.837z"/>
		<path style="fill:#373C70;" d="M107.32,163.284c-0.995-0.04-1.88,0.767-1.918,1.766c-0.173,4.595-0.346,9.19-0.519,13.785
			c-0.037,0.994,0.769,1.878,1.766,1.918c0.995,0.04,1.88-0.767,1.918-1.766c0.173-4.595,0.346-9.19,0.519-13.785
			C109.123,164.208,108.316,163.324,107.32,163.284z"/>
		<path style="fill:#373C70;" d="M122.347,199.069c-2.304-3.088-5.572-4.651-8.812-6.521c-1.544-0.891-2.911-2.077-2.867-4.008
			c0.043-1.933,1.55-3.231,3.367-3.512c2.345-0.363,1.502-3.952-0.832-3.591c-3.41,0.527-6.117,3.476-6.219,6.95
			c-0.107,3.655,2.36,6.111,5.376,7.715c2.839,1.509,5.808,3.065,7.554,5.895c1.588,2.573,2.097,6.172-0.246,8.475
			c-1.025,1.007-2.437,1.621-3.868,1.207c-1.274-0.369-2.47-1.5-2.508-2.887c-0.066-2.362-3.75-2.525-3.684-0.152
			c0.1,3.607,2.952,6.448,6.506,6.833c3.598,0.389,6.851-2.275,8.176-5.443C125.823,206.367,124.63,202.128,122.347,199.069z"/>
		<path style="fill:#373C70;" d="M89.63,253.66c-3.834,1.051-7.668,2.101-11.502,3.152c-2.282,0.625-1.461,4.219,0.832,3.591
			c3.191-0.875,6.383-1.749,9.574-2.624c0.383,2.85,0.493,5.723,0.291,8.602c-0.197,2.802-0.434,6.115-1.86,8.605
			c-1.344,2.346-3.826,2.832-6.177,1.583c-2.658-1.411-4.258-4.357-5.669-6.892c-3.286-5.906-5.464-12.366-6.503-19.042
			c-0.506-3.253-0.714-6.541-0.64-9.832c0.065-2.874,0.152-5.934,1.151-8.664c0.977-2.672,3.308-4.085,6.014-2.756
			c3.172,1.557,4.277,5.359,5.242,8.474c0.697,2.253,4.294,1.438,3.591-0.832c-1.114-3.597-2.369-7.384-5.431-9.809
			c-2.715-2.15-6.637-2.875-9.61-0.808c-2.804,1.95-3.797,5.421-4.234,8.64c-0.529,3.897-0.544,7.899-0.213,11.813
			c0.681,8.052,2.881,15.932,6.607,23.113c1.734,3.341,3.723,6.908,6.84,9.149c2.808,2.019,6.843,2.566,9.765,0.489
			c3.316-2.358,4.07-6.78,4.558-10.542c0.605-4.664,0.419-9.406-0.415-14.03C91.669,254.086,90.556,253.406,89.63,253.66z"/>
		<path style="fill:#373C70;" d="M113.202,235.497c-1.473-3.629-3.279-7.432-5.864-10.414c-2.506-2.891-6.567-4.786-10.151-2.542
			c-4.075,2.552-4.589,7.389-4.627,11.774c-0.003,0.326,0.069,0.606,0.187,0.848c0.006,7.152,0.921,14.309,2.789,21.21
			c1.06,3.914,2.266,8.264,5.252,11.188c2.676,2.62,6.554,3.885,10.11,2.345c7.963-3.448,6.827-15.018,5.778-21.929
			C116.027,243.69,114.832,239.513,113.202,235.497z M112.767,246.931c0.659,3.493,0.963,7.054,0.847,10.609
			c-0.101,3.077-0.667,6.702-3.429,8.571c-2.394,1.619-5.261,0.523-7.07-1.444c-2.344-2.549-3.239-6.292-4.101-9.548
			c-2.161-8.16-2.964-16.598-2.441-25.02c0.008-0.127,0-0.244-0.013-0.358c0.313-1.529,0.945-2.934,2.242-3.87
			c2.268-1.637,4.594,0.219,6.064,1.99c2.064,2.49,3.512,5.654,4.769,8.611C111.061,239.826,112.092,243.352,112.767,246.931z"/>
		<path style="fill:#373C70;" d="M130.121,255.913c-0.659-0.872-1.711-1.3-2.763-1.436c-0.988-0.128-2.044,0.191-2.841,0.768
			c-0.061,0.044-0.109,0.1-0.168,0.147c-0.026,0.006-0.054,0.004-0.08,0.012c-0.476,0.133-0.923,0.405-1.179,0.843
			c-0.55,0.939-0.691,1.971-0.523,3.036c0.069,0.438,0.238,0.877,0.432,1.271c0.193,0.391,0.461,0.766,0.768,1.075
			c0.757,0.763,1.784,1.233,2.864,1.259c0.464,0.011,0.965-0.037,1.408-0.188c0.639-0.218,1.097-0.456,1.627-0.877
			c0.864-0.687,1.324-1.776,1.424-2.852c0.043-0.469-0.005-0.973-0.133-1.426C130.775,256.904,130.516,256.435,130.121,255.913z"/>
		<path style="fill:#373C70;" d="M120.914,221.938c1.411,9.898,2.823,19.797,4.235,29.695c0.335,2.348,3.924,1.502,3.591-0.832
			c-1.412-9.898-2.823-19.797-4.235-29.695C124.17,218.758,120.582,219.604,120.914,221.938z"/>
		<g>
			<path style="fill:#373C70;" d="M76.317,166.137c-0.581,0-1.101-0.407-1.223-0.999l-2.329-11.321
				c-0.139-0.676,0.296-1.337,0.972-1.477c0.674-0.137,1.336,0.296,1.476,0.973l2.329,11.321c0.139,0.676-0.296,1.337-0.972,1.477
				C76.485,166.129,76.4,166.137,76.317,166.137z"/>
		</g>
		<g>
			<path style="fill:#373C70;" d="M69.816,167.209c-0.26,0-0.522-0.081-0.747-0.249l-7.632-5.699
				c-0.553-0.413-0.667-1.196-0.254-1.749c0.413-0.554,1.197-0.667,1.749-0.254l7.633,5.699c0.553,0.413,0.666,1.196,0.253,1.749
				C70.573,167.036,70.197,167.209,69.816,167.209z"/>
		</g>
		<g>
			<path style="fill:#373C70;" d="M61.468,170.332c-0.137,0-0.277-0.023-0.414-0.071l-5.588-1.958
				c-0.651-0.229-0.995-0.942-0.766-1.593c0.229-0.652,0.942-0.995,1.593-0.766l5.588,1.959c0.651,0.229,0.995,0.941,0.766,1.593
				C62.467,170.009,61.984,170.332,61.468,170.332z"/>
		</g>
		<g>
			<path style="fill:#373C70;" d="M85.496,164.103c-0.068,0-0.136-0.005-0.205-0.017c-0.681-0.113-1.142-0.756-1.03-1.437
				l1.315-7.966c0.112-0.682,0.756-1.144,1.437-1.03c0.681,0.113,1.142,0.756,1.03,1.437l-1.315,7.966
				C86.627,163.669,86.097,164.103,85.496,164.103z"/>
		</g>
		<g>
			<path style="fill:#373C70;" d="M91.486,163.378c-0.162,0-0.327-0.032-0.485-0.099c-0.636-0.268-0.935-1.001-0.666-1.637
				l2.032-4.821c0.268-0.637,1.003-0.935,1.637-0.667c0.636,0.268,0.935,1.001,0.666,1.637l-2.032,4.821
				C92.437,163.09,91.974,163.378,91.486,163.378z"/>
		</g>
		<g>
			<path style="fill:#373C70;" d="M143.932,264.554c-0.349,0-0.696-0.146-0.943-0.429c-0.453-0.521-0.398-1.31,0.122-1.764
				c4.235-3.689,6.407-9.656,5.532-15.204c-0.107-0.682,0.358-1.321,1.04-1.429c0.686-0.11,1.322,0.358,1.43,1.04
				c1.005,6.377-1.491,13.237-6.36,17.477C144.516,264.452,144.223,264.554,143.932,264.554z"/>
		</g>
		<g>
			<path style="fill:#373C70;" d="M100.726,326.321c-0.11,0-0.223-0.015-0.334-0.046c-0.665-0.184-1.055-0.873-0.871-1.538
				l4.638-16.729c0.184-0.665,0.871-1.059,1.538-0.87c0.665,0.184,1.055,0.873,0.871,1.538l-4.638,16.729
				C101.777,325.959,101.274,326.321,100.726,326.321z"/>
		</g>
		<g>
			<path style="fill:#373C70;" d="M107.323,325.56c-0.112,0-0.227-0.015-0.34-0.047c-0.665-0.188-1.051-0.879-0.863-1.543
				l5.075-17.956c0.188-0.664,0.88-1.052,1.543-0.863c0.665,0.188,1.051,0.879,0.863,1.543l-5.075,17.956
				C108.369,325.2,107.868,325.56,107.323,325.56z"/>
		</g>
		<g>
			<path style="fill:#373C70;" d="M113.378,323.135c-0.121,0-0.243-0.018-0.365-0.055c-0.661-0.201-1.033-0.899-0.832-1.56
				l5.313-17.44c0.201-0.66,0.898-1.031,1.56-0.831c0.66,0.2,1.033,0.899,0.832,1.559l-5.313,17.441
				C114.409,322.788,113.913,323.135,113.378,323.135z"/>
		</g>
	</g>
	<g>
		<g>
			<path style="fill:#AFD8EA;" d="M170.122,58.481l3.815,25.909c2.03,13.868-6.595,27.087-19.547,29.949l-3.175,0.696
				c-3.71,0.815-5.916,4.918-4.687,8.714l4.894,15.114l-6.269-0.518l-4.897-15.122c-1.218-3.79,0.988-7.893,4.687-8.714l3.175-0.696
				c12.955-2.854,21.58-16.073,19.548-29.949l-3.816-25.909c-0.324-2.22-0.904-4.322-1.704-6.28
				c-0.107-0.279-0.22-0.547-0.341-0.812c-0.035-0.074-0.071-0.148-0.106-0.222c-0.136-0.308-0.281-0.612-0.435-0.914
				c-0.168-0.344-0.342-0.677-0.533-1.004l-0.009-0.026c-0.179-0.321-0.365-0.631-0.558-0.938c-0.206-0.341-0.417-0.671-0.645-0.994
				c-0.188-0.29-0.389-0.565-0.588-0.832c-0.006-0.017-0.018-0.023-0.032-0.037c-0.208-0.292-0.432-0.579-0.663-0.854
				c-0.228-0.295-0.47-0.575-0.717-0.844c-0.239-0.272-0.486-0.541-0.74-0.798c-0.245-0.26-0.509-0.523-0.776-0.766
				c-0.262-0.254-0.529-0.497-0.802-0.728c-0.026-0.02-0.052-0.039-0.07-0.062c-0.247-0.212-0.502-0.42-0.766-0.626
				c-0.27-0.223-0.554-0.431-0.838-0.639c-0.026-0.02-0.052-0.039-0.087-0.056c-0.209-0.158-0.426-0.312-0.649-0.455
				c-0.15-0.101-0.301-0.202-0.449-0.295c-0.816-0.522-1.663-0.994-2.534-1.4c-0.326-0.164-0.655-0.309-0.981-0.445
				c-0.329-0.144-0.663-0.277-0.992-0.393c-0.986-0.376-1.999-0.665-3.029-0.891c-0.043-0.014-0.083-0.019-0.127-0.033
				c-0.334-0.076-0.661-0.134-0.998-0.189c-0.624-0.109-1.267-0.191-1.91-0.245l6.263,0.53
				C158.976,37.619,168.332,46.345,170.122,58.481z"/>
			<g>
				<path style="fill:#373C70;" d="M77.752,73.8c-0.531,0-0.973-0.418-0.998-0.953c-0.39-8.344,4.636-16.611,12.223-20.105
					c0.504-0.23,1.097-0.012,1.327,0.49c0.231,0.502,0.012,1.096-0.49,1.327c-6.866,3.162-11.415,10.644-11.062,18.195
					c0.026,0.552-0.401,1.02-0.952,1.046C77.784,73.799,77.768,73.8,77.752,73.8z"/>
			</g>
			<g>
				<path style="fill:#373C70;" d="M145.154,139.594c-0.284,0-0.566-0.096-0.796-0.287l-20.572-17.003
					c-0.109-0.089-0.229-0.174-0.354-0.256c-0.683-0.474-1.446-0.748-2.235-0.811c-0.198-0.012-0.421-0.016-0.651-0.011
					c-0.012,0.002-0.08,0.005-0.146,0.016c-0.252,0.026-0.426,0.059-0.598,0.096l-10.594,2.327
					c-0.395,0.087-0.784,0.163-1.176,0.229c-0.356,0.06-0.688,0.115-1.027,0.152c-0.413,0.06-0.86,0.104-1.303,0.134
					c-0.738,0.057-1.519,0.076-2.312,0.06c-0.384-0.006-0.769-0.025-1.156-0.053c-10.62-0.752-19.521-8.192-22.674-18.954
					l-7.382-25.124c-2.25-7.666-1.215-15.992,2.839-22.843c3.822-6.46,9.794-10.869,16.815-12.415l42.741-9.425
					c3.115-0.68,6.25-0.76,9.32-0.238c0.347,0.062,0.696,0.128,1.036,0.197c0.048,0.01,0.096,0.022,0.143,0.038
					c0.001,0,0.001,0,0.002,0c0,0,0.001,0,0.001,0v0c0.009,0.001,0.017,0.004,0.032,0.007c1.038,0.229,2.101,0.543,3.16,0.932
					c0.353,0.132,0.701,0.271,1.042,0.412c0.361,0.151,0.701,0.308,1.043,0.473c0.883,0.419,1.754,0.9,2.657,1.468
					c0.158,0.1,0.319,0.207,0.48,0.315l0.263,0.183c0.126,0.086,0.251,0.172,0.373,0.261c0.068,0.042,0.123,0.083,0.167,0.117
					c0.27,0.197,0.558,0.417,0.848,0.646c0.264,0.209,0.528,0.425,0.795,0.649c0.03,0.025,0.058,0.051,0.085,0.079
					c0.326,0.276,0.593,0.519,0.854,0.773c0.261,0.249,0.536,0.515,0.805,0.794c0.261,0.266,0.525,0.552,0.779,0.842
					c0.251,0.278,0.497,0.576,0.743,0.874c0.236,0.282,0.473,0.583,0.693,0.89c0.015,0.019,0.029,0.039,0.044,0.059l0.002-0.001
					c0.221,0.301,0.432,0.589,0.624,0.884c0.222,0.313,0.449,0.668,0.67,1.035c0.193,0.305,0.39,0.634,0.58,0.976
					c0.015,0.027,0.028,0.054,0.041,0.081c0.189,0.329,0.363,0.663,0.532,1.007c0.151,0.294,0.306,0.621,0.456,0.959l0.091,0.188
					c0.141,0.307,0.264,0.599,0.38,0.904c0.841,2.06,1.441,4.271,1.773,6.546l3.815,25.907c2.135,14.577-6.876,28.348-20.515,31.352
					l-3.177,0.696c-1.371,0.304-2.537,1.186-3.279,2.48c-0.804,1.402-0.98,3.089-0.485,4.63l4.896,15.119
					c0.171,0.529-0.027,1.107-0.487,1.419C145.643,139.523,145.398,139.594,145.154,139.594z M120.764,118.725
					c0.218,0,0.415,0.007,0.611,0.019c1.25,0.1,2.438,0.526,3.456,1.233c0.172,0.112,0.36,0.247,0.542,0.396l17.27,14.273
					l-3.575-11.039c-0.711-2.211-0.457-4.631,0.695-6.642c1.081-1.884,2.87-3.225,4.909-3.678l3.179-0.697
					c12.363-2.723,20.524-15.263,18.578-28.547l-3.815-25.908c0,0,0-0.001,0-0.002c-0.303-2.075-0.849-4.089-1.624-5.988
					c-0.107-0.28-0.21-0.523-0.32-0.764l-0.097-0.202c-0.146-0.33-0.28-0.613-0.419-0.885c-0.165-0.337-0.325-0.643-0.5-0.943
					c-0.022-0.038-0.043-0.078-0.061-0.118c-0.156-0.277-0.316-0.544-0.484-0.811c-0.203-0.336-0.398-0.641-0.609-0.94
					c-0.188-0.285-0.369-0.532-0.549-0.778c-0.025-0.028-0.048-0.058-0.069-0.087c-0.188-0.265-0.393-0.525-0.602-0.774
					c-0.228-0.277-0.449-0.546-0.687-0.809c-0.235-0.268-0.466-0.52-0.703-0.76c-0.251-0.261-0.501-0.503-0.746-0.736
					c-0.251-0.244-0.499-0.468-0.749-0.682c-0.018-0.015-0.04-0.035-0.064-0.058l-0.001,0c-0.249-0.209-0.496-0.411-0.74-0.604
					c-0.258-0.204-0.517-0.402-0.783-0.597c-0.041-0.024-0.081-0.051-0.118-0.079c-0.112-0.085-0.23-0.165-0.347-0.245l-0.272-0.19
					c-0.112-0.075-0.252-0.168-0.389-0.254c-0.818-0.515-1.605-0.95-2.405-1.329c-0.311-0.15-0.611-0.289-0.929-0.421
					c-0.309-0.129-0.629-0.256-0.946-0.375c-0.956-0.352-1.921-0.636-2.859-0.842c-0.036-0.008-0.072-0.018-0.108-0.028
					c-0.008-0.001-0.02-0.003-0.039-0.008c-0.308-0.062-0.624-0.121-0.929-0.176c-2.741-0.466-5.556-0.393-8.354,0.217
					l-42.739,9.425c-6.337,1.395-11.735,5.389-15.201,11.247c-3.702,6.257-4.647,13.862-2.592,20.865l7.382,25.124
					c2.856,9.75,10.885,16.487,20.454,17.164c0.343,0.025,0.682,0.041,1.026,0.047c0.715,0.017,1.415-0.003,2.081-0.054
					c0.392-0.027,0.78-0.064,1.17-0.12c0.331-0.038,0.617-0.086,0.904-0.134c0.376-0.063,0.724-0.13,1.077-0.208l10.596-2.327
					c0.275-0.061,0.552-0.109,0.826-0.134c0.056-0.011,0.194-0.022,0.332-0.033C120.544,118.727,120.656,118.725,120.764,118.725z
					 M152.898,41.649c0.001,0,0.002,0,0.003,0.001C152.9,41.649,152.899,41.649,152.898,41.649z"/>
			</g>
			<g>
				<path style="fill:#373C70;" d="M70.969,56.222c-0.207,0-0.418-0.052-0.612-0.161l-20.41-11.483
					c-0.601-0.338-0.815-1.101-0.476-1.702c0.339-0.602,1.101-0.814,1.702-0.477l20.41,11.483c0.602,0.338,0.815,1.101,0.477,1.702
					C71.83,55.993,71.406,56.222,70.969,56.222z"/>
			</g>
			<g>
				<path style="fill:#373C70;" d="M75.471,50.379c-0.433,0-0.854-0.225-1.084-0.627l-6.545-11.384
					c-0.344-0.599-0.138-1.363,0.46-1.707c0.599-0.344,1.363-0.139,1.707,0.46l6.545,11.384c0.344,0.599,0.138,1.363-0.461,1.707
					C75.897,50.326,75.683,50.379,75.471,50.379z"/>
			</g>
			<g>
				<path style="fill:#373C70;" d="M82.241,44.914c-0.496,0-0.965-0.297-1.161-0.786l-3.597-8.977
					c-0.257-0.641,0.055-1.369,0.695-1.625c0.64-0.258,1.368,0.055,1.625,0.695l3.597,8.977c0.257,0.641-0.054,1.368-0.695,1.625
					C82.552,44.885,82.395,44.914,82.241,44.914z"/>
			</g>
			<g>
				<path style="fill:#373C70;" d="M52.326,63.959c-0.667,0-1.221-0.527-1.248-1.199c-0.028-0.69,0.508-1.271,1.198-1.3l15.44-0.628
					c0.683-0.028,1.271,0.508,1.3,1.198c0.028,0.69-0.508,1.271-1.198,1.3l-15.441,0.628C52.361,63.959,52.343,63.959,52.326,63.959
					z"/>
			</g>
			<g>
				<path style="fill:#373C70;" d="M58.566,71.675c-0.594,0-1.121-0.425-1.229-1.03c-0.122-0.68,0.331-1.329,1.011-1.45l7.789-1.391
					c0.681-0.123,1.329,0.331,1.45,1.011c0.122,0.68-0.331,1.329-1.011,1.45l-7.789,1.391
					C58.713,71.669,58.639,71.675,58.566,71.675z"/>
			</g>
		</g>
		<path style="fill:#E4A4CE;" d="M107.955,76.799c-2.74-5.662-8.689-9.692-14.805-8.685c-0.966,0.039-1.833,0.219-2.45,0.506
			c-6.165,2.861-8.454,10.095-8.394,16.518c0.061,6.555,3.119,13.963,9.173,17.143c6.237,3.277,13.385,0.767,16.876-5.198
			C111.903,91.019,110.904,82.893,107.955,76.799z M104.768,93.039c-1.515,4.142-5.886,7.004-10.205,5.198
			c-4.47-1.869-6.875-7.269-7.204-11.834c-0.337-4.674,1.071-10.228,5.093-12.972c4.185-1.984,8.629,1.308,10.63,4.828
			C105.5,82.518,106.475,88.373,104.768,93.039z"/>
		<path style="fill:#E4A4CE;" d="M142.104,94.685c-1.62-5.848-3.24-11.696-4.861-17.543c-0.788-2.845-1.577-5.69-2.365-8.535
			c-0.787-2.842-1.462-5.751-2.611-8.474c-0.437-1.035-1.206-1.835-2.411-1.835c-1.126,0-2.077,0.783-2.411,1.835
			c-1.117,3.524-2.274,7.036-3.452,10.541c-2.663-1.911-5.199-3.981-7.612-6.213c-1.947-1.801-4.561,0.032-4.179,2.432
			c1.74,10.918,3.479,21.836,5.219,32.754c0.213,1.335,1.877,2.076,3.075,1.746c1.421-0.391,1.959-1.737,1.746-3.075
			c-1.371-8.607-2.743-17.213-4.114-25.82c1.912,1.503,3.885,2.929,5.916,4.268c1.425,0.94,3.179-0.052,3.673-1.494
			c0.709-2.075,1.405-4.155,2.093-6.237c0.06,0.221,0.119,0.443,0.18,0.664l2.43,8.772c1.62,5.848,3.241,11.696,4.861,17.544
			C138.14,99.11,142.965,97.795,142.104,94.685z"/>
		<path style="fill:#E4A4CE;" d="M163.869,79.968c-0.2-2.12-1.138-4.054-3.593-3.897c-2.34,0.149-4.737,0.781-7.049,1.174
			c-1.332,0.226-2.078,1.867-1.746,3.075c0.387,1.41,1.739,1.973,3.075,1.746l3.192-0.543c0.401-0.068,0.802-0.136,1.203-0.204
			c0.023,0.521,0.043,1.043,0.038,1.565c-0.011,1.185-0.069,2.388-0.283,3.556c-0.282,1.539-0.844,4.059-2.427,4.823
			c-1.443,0.697-3.739-0.793-4.81-1.7c-1.64-1.389-2.785-3.202-3.671-5.143c-1.889-4.139-2.893-8.968-2.988-13.505
			c-0.049-2.334,0.161-4.639,0.755-6.899c0.493-1.876,1.175-4.135,2.652-5.489c1.618-1.484,3.605-0.671,5.07,0.652
			c1.526,1.377,2.52,3.299,2.652,5.358c0.087,1.348,1.087,2.5,2.5,2.5c1.286,0,2.587-1.146,2.5-2.5
			c-0.209-3.254-1.503-6.341-3.85-8.641c-2.393-2.346-5.96-3.983-9.297-2.837c-3.475,1.194-5.309,4.49-6.47,7.754
			c-1.166,3.277-1.605,6.853-1.508,10.322c0.096,3.453,0.691,6.913,1.634,10.233c0.963,3.389,2.266,6.743,4.448,9.542
			c1.943,2.493,4.669,4.563,7.804,5.253c3.809,0.838,6.927-1.144,8.576-4.557C163.984,88.079,164.232,83.812,163.869,79.968z"/>
	</g>
	<g>
		<polygon style="fill:#EFCEAD;" points="160.955,181.758 182.566,161.358 197.897,204.478 211.64,194.042 220.377,232.419 
			204.601,213.374 192.175,224.175 		"/>
		<polygon style="fill:#EFCEAD;" points="222.301,175.085 238.26,176.034 227.308,226.118 		"/>
		<polygon style="fill:#EFCEAD;" points="167.865,219.379 207.963,241.012 168.66,236.615 		"/>
		<polygon style="fill:#EFCEAD;" points="176.195,252.689 204.54,248.112 182.283,264.368 		"/>
		<polygon style="fill:#EFCEAD;" points="239.321,212.069 246.398,187.656 256.532,192.648 		"/>
	</g>
	<g>
		<g>
			<path style="fill:#373C70;" d="M425.642,128.455c-0.021,0-0.043-0.001-0.064-0.001c-0.689-0.035-1.22-0.623-1.185-1.312
				l0.637-12.547c0.034-0.69,0.626-1.211,1.311-1.185c0.689,0.035,1.22,0.623,1.185,1.312l-0.637,12.547
				C426.856,127.936,426.303,128.455,425.642,128.455z"/>
		</g>
		<g>
			<path style="fill:#373C70;" d="M432.234,122.499c-0.022,0-0.043,0-0.065-0.001l-12.547-0.637
				c-0.689-0.035-1.22-0.623-1.185-1.312c0.034-0.69,0.624-1.225,1.311-1.185l12.547,0.637c0.689,0.035,1.22,0.623,1.185,1.312
				C433.448,121.981,432.895,122.499,432.234,122.499z"/>
		</g>
	</g>
	<g>
		<g>
			<g>
				<path style="fill:#373C70;" d="M42.073,354.345c-0.021,0-0.043-0.001-0.064-0.002c-0.689-0.034-1.22-0.622-1.185-1.311
					l0.637-12.547c0.035-0.689,0.627-1.218,1.312-1.185c0.689,0.034,1.22,0.622,1.185,1.312l-0.637,12.547
					C43.286,353.826,42.734,354.345,42.073,354.345z"/>
			</g>
			<g>
				<path style="fill:#373C70;" d="M48.664,348.39c-0.021,0-0.043-0.001-0.064-0.002l-12.547-0.637
					c-0.689-0.034-1.22-0.622-1.185-1.311c0.035-0.69,0.626-1.215,1.312-1.185l12.547,0.637c0.689,0.034,1.22,0.622,1.185,1.312
					C49.878,347.871,49.326,348.39,48.664,348.39z"/>
			</g>
		</g>
		<g>
			<path style="fill:#373C70;" d="M42.307,320.85c-0.107,0-0.216-0.003-0.327-0.009c-3.475-0.177-5.155-3.002-5.018-5.702
				c0.137-2.703,2.078-5.357,5.57-5.17l0,0c3.476,0.177,5.155,3.002,5.018,5.702C47.418,318.288,45.578,320.85,42.307,320.85z
				 M42.214,312.46c-2.056,0-2.7,1.745-2.754,2.806c-0.055,1.091,0.44,2.967,2.648,3.079c2.223,0.103,2.891-1.708,2.946-2.801
				c0.056-1.091-0.44-2.966-2.648-3.079l0,0C42.34,312.462,42.276,312.46,42.214,312.46z"/>
		</g>
		<g>
			<path style="fill:#373C70;" d="M64.05,340.31c-0.162,0-0.325-0.004-0.492-0.013c-2.997-0.151-5.357-1.621-6.644-4.138
				c-1.397-2.729-1.215-6.294,0.452-8.87c1.537-2.376,4.035-3.606,7.028-3.447l0,0c5.246,0.267,7.781,4.543,7.573,8.629
				C71.766,336.432,68.989,340.31,64.05,340.31z M63.897,326.329c-2.412,0-3.737,1.244-4.433,2.318
				c-1.198,1.852-1.328,4.412-0.325,6.373c0.611,1.194,1.896,2.646,4.546,2.78c3.776,0.187,5.645-2.694,5.785-5.456
				c0.145-2.851-1.408-5.814-5.203-6.007C64.141,326.332,64.018,326.329,63.897,326.329z"/>
		</g>
	</g>
	<g>
		<g>
			<path style="fill:#373C70;" d="M150.669,385.434c-1.319,0-2.671-0.524-3.81-1.773c-2.344-2.572-1.548-5.762,0.45-7.583
				c2.001-1.822,5.252-2.323,7.596,0.249c2.344,2.571,1.548,5.76-0.449,7.582C153.426,384.846,152.066,385.434,150.669,385.434z
				 M151.085,377.059c-0.856,0-1.63,0.445-2.092,0.866c-0.808,0.735-1.776,2.417-0.287,4.052c1.49,1.634,3.255,0.821,4.064,0.084
				c0.807-0.735,1.775-2.417,0.286-4.051l0,0C152.418,377.31,151.728,377.059,151.085,377.059z"/>
		</g>
		<g>
			<path style="fill:#373C70;" d="M156.968,356.069c-2.139,0-4.133-0.922-5.739-2.684c-3.539-3.881-2.329-8.703,0.694-11.459
				c3.026-2.761,7.943-3.523,11.482,0.359c2.021,2.217,2.663,4.922,1.806,7.616c-0.929,2.921-3.567,5.325-6.564,5.982
				C158.082,356.007,157.52,356.069,156.968,356.069z M157.637,342.119c-1.501,0-2.948,0.669-4.028,1.653
				c-2.109,1.923-3.091,5.12-0.531,7.929c1.785,1.958,3.724,2.031,5.036,1.739c2.154-0.472,4.049-2.198,4.717-4.297
				c0.407-1.278,0.516-3.214-1.271-5.175l0,0C160.358,342.652,158.976,342.119,157.637,342.119z"/>
		</g>
		<g>
			<path style="fill:#373C70;" d="M184.844,360.096c-1.991,0-4.031-0.79-5.747-2.673c-3.538-3.881-2.329-8.702,0.694-11.459
				c3.028-2.761,7.943-3.524,11.482,0.358l0,0c3.539,3.882,2.329,8.703-0.695,11.46C189.02,359.204,186.96,360.096,184.844,360.096z
				 M185.506,346.156c-1.501,0-2.949,0.67-4.029,1.654c-2.109,1.923-3.091,5.12-0.531,7.929c2.546,2.791,5.905,2.06,7.949,0.196
				c2.11-1.924,3.092-5.121,0.532-7.93l0,0C188.226,346.69,186.845,346.156,185.506,346.156z"/>
		</g>
	</g>
	<g>
		<g>
			<g>
				<path style="fill:#373C70;" d="M31.484,129.357c-0.021,0-0.043-0.001-0.065-0.001c-0.689-0.035-1.22-0.622-1.185-1.312
					l0.637-12.547c0.035-0.689,0.62-1.213,1.312-1.185c0.689,0.035,1.22,0.623,1.185,1.312l-0.637,12.547
					C32.698,128.838,32.145,129.357,31.484,129.357z"/>
			</g>
			<g>
				<path style="fill:#373C70;" d="M38.076,123.401c-0.021,0-0.043,0-0.065-0.001l-12.547-0.637
					c-0.689-0.035-1.22-0.623-1.185-1.312c0.035-0.69,0.634-1.211,1.312-1.185l12.547,0.637c0.689,0.035,1.22,0.622,1.185,1.312
					C39.289,122.883,38.737,123.401,38.076,123.401z"/>
			</g>
		</g>
		<g>
			<path style="fill:#373C70;" d="M31.702,95.86c-0.102,0-0.206-0.002-0.31-0.008c-3.475-0.176-5.155-3.002-5.018-5.702
				c0.137-2.703,2.086-5.341,5.57-5.17l0,0c1.956,0.1,3.562,1.104,4.407,2.755c0.916,1.791,0.797,4.13-0.297,5.821
				C35.099,95.032,33.526,95.86,31.702,95.86z M31.625,87.472c-2.056,0-2.7,1.745-2.754,2.805c-0.055,1.091,0.44,2.967,2.648,3.079
				c1.339,0.071,2.07-0.592,2.437-1.158c0.615-0.95,0.685-2.317,0.17-3.324c-0.307-0.599-0.956-1.328-2.308-1.396
				C31.752,87.474,31.688,87.472,31.625,87.472z"/>
		</g>
		<g>
			<path style="fill:#373C70;" d="M53.462,115.322c-0.162,0-0.325-0.004-0.492-0.012c-5.246-0.267-7.781-4.543-7.573-8.63
				c0.208-4.09,3.131-8.098,8.409-7.827l0,0c5.246,0.266,7.781,4.542,7.573,8.629C61.177,111.444,58.4,115.322,53.462,115.322z
				 M53.326,101.341c-3.539,0-5.296,2.79-5.432,5.466c-0.145,2.851,1.408,5.813,5.203,6.006c3.754,0.189,5.644-2.694,5.785-5.457
				c0.145-2.851-1.408-5.813-5.204-6.005l0,0C53.559,101.344,53.441,101.341,53.326,101.341z"/>
		</g>
	</g>
	<g>
		<g>
			<path style="fill:#AFD8EA;" d="M270.688,39.051c33.574,6.394,63.385,29.384,55.79,62.569
				c-7.443,33.213-44.763,43.426-78.324,37.034c-0.66-0.126-1.315-0.257-1.972-0.395c-20.708,6.077,4.53,22.839,5.859,23.721
				c-81.373-25.519-60.769-82.884-59.685-85.904C199.793,42.866,237.122,32.659,270.688,39.051z"/>
			<g>
				<path style="fill:#373C70;" d="M196.476,81.037c-0.081,0-0.164-0.01-0.246-0.03c-0.535-0.135-0.86-0.679-0.725-1.214
					c3.895-15.451,15.574-28.548,30.48-34.18c0.516-0.194,1.094,0.065,1.289,0.582c0.195,0.517-0.065,1.094-0.582,1.289
					c-14.303,5.404-25.51,17.972-29.248,32.798C197.33,80.734,196.923,81.037,196.476,81.037z"/>
			</g>
			<g>
				<path style="fill:#373C70;" d="M290.559,131.885c-0.474,0-0.894-0.337-0.982-0.819c-0.1-0.544,0.259-1.064,0.803-1.165
					c10.554-1.942,20.209-8.561,25.828-17.706c0.288-0.47,0.904-0.618,1.375-0.329c0.471,0.289,0.618,0.905,0.328,1.376
					c-5.91,9.62-16.066,16.584-27.17,18.627C290.68,131.88,290.619,131.885,290.559,131.885z"/>
			</g>
		</g>
		<g>
			<path style="fill:#373C70;" d="M234.093,82.89c3.799-2.526,7.083-5.913,9.512-9.773c2.281-3.624,4.193-7.864,4.601-12.173
				c0.393-4.152-0.963-8.806-5.367-10.163c-4.571-1.408-9.02,1.192-11.731,4.77c-1.471,1.941-2.605,4.139-3.714,6.299
				c-1.224,2.384-2.369,4.809-3.433,7.268c-2.074,4.793-3.841,9.717-5.303,14.731c-0.077,0.263-0.141,0.528-0.216,0.791
				c-3.645,0.319-7.362-0.013-10.945-1.031c-0.929-0.264-1.899,0.642-2.027,1.507c-0.156,1.058,0.575,1.762,1.507,2.027
				c3.404,0.966,6.948,1.348,10.463,1.175c-1.931,7.592-3.175,15.336-3.74,23.145c-0.231,2.61-0.296,5.243-0.349,7.838
				c-0.012,0.964,0.462,1.873,1.507,2.026c0.862,0.127,2.007-0.536,2.026-1.507c0.039-3.02,0.193-6.036,0.436-9.043
				c0.312-2.855,0.876-5.668,1.951-8.34c1.617-4.022,5.007-9.177,9.855-9.389c2.209-0.097,3.652,1.522,3.961,3.617
				c0.411,2.782-0.819,5.582-1.688,8.165c-1.972,5.864-4.102,11.7-5.909,17.617c-0.859,2.812-1.408,6.013,0.372,8.603
				c1.467,2.135,4.284,3.392,6.755,2.275c2.088-0.944,0.767-4.264-1.335-3.313c-1.984,0.897-3.102-1.833-3.051-3.356
				c0.047-1.393,0.514-2.758,0.95-4.066c0.512-1.535,1.032-3.068,1.548-4.603c1.032-3.069,2.064-6.137,3.096-9.206
				c0.976-2.903,2.207-5.851,2.721-8.882c0.438-2.585,0.133-5.402-1.448-7.57c-1.558-2.137-4.149-3.073-6.733-2.798
				c-3.56,0.379-6.529,2.578-8.78,5.343c0.483-2.336,1.031-4.658,1.643-6.963C225.8,87.158,230.217,85.467,234.093,82.89z
				 M230.197,64.208c1.722-3.424,3.675-8.017,7.433-9.652c1.566-0.681,3.518-0.92,5.035,0.022c1.34,0.832,1.869,2.395,2.013,3.889
				c0.352,3.658-1.215,7.522-2.882,10.694c-1.858,3.533-4.472,6.708-7.582,9.211c-3.51,2.825-7.594,4.714-11.888,5.666
				C224.371,77.226,226.991,70.585,230.197,64.208z"/>
			<path style="fill:#373C70;" d="M313.64,87.31c0.005-0.965-1.123-1.66-1.992-1.553c-1.058,0.13-1.548,1.024-1.553,1.992
				c-0.016,2.875-1.066,5.778-2.788,8.129c-0.555-1.568-1.468-2.97-2.929-3.876c-3.024-1.876-6.067-0.382-8.08,2.157
				c-1.558,1.965-3.072,4.708-2.216,7.162c-0.609,0.021-1.191,0.336-1.462,1.04c-1.204,3.124-2.853,6.014-4.987,8.597
				c-1.251,1.514-4.42,5.581-6.609,3.315c-0.961-0.995-1.095-2.506-0.977-3.812c0.16-1.77,0.604-3.535,1.023-5.258
				c0.794-3.264,1.82-6.467,3.047-9.594c0.527-1.343,1.1-2.666,1.701-3.976c0.222,0.427,0.636,0.753,1.282,0.811
				c7.862,0.71,15.489-3.759,18.348-11.203c1.312-3.417,2.188-8.486-0.344-11.576c-1.234-1.506-3.111-2.371-5.066-1.989
				c-1.909,0.373-3.418,1.649-4.717,3.027c-5.668,6.01-10.152,13.384-13.429,20.939c-1.671,3.853-3.016,7.841-4.07,11.906
				c-0.499,1.925-1.111,4.058-1.31,6.166c-0.334,0.072-0.661,0.242-0.947,0.545c-1.929,2.038-4.878,4.002-7.809,2.993
				c-2.882-0.992-3.706-4.449-3.684-7.15c0.028-3.488,0.78-7.073,1.414-10.493c0.384-2.072,0.824-4.136,1.323-6.186
				c0.237,0.099,0.506,0.154,0.81,0.141c7.509-0.317,14.46-5.073,17.349-12.032c1.48-3.565,2.052-7.764,1.165-11.553
				c-0.87-3.717-3.776-7.042-7.933-5.664c-1.93,0.64-3.37,2.161-4.494,3.795c-1.174,1.706-2.23,3.51-3.214,5.331
				c-2.011,3.721-3.649,7.637-4.983,11.648c-1.35,4.058-2.415,8.213-3.25,12.407c-0.832,4.175-1.72,8.536-1.734,12.805
				c0,0.066,0.004,0.134,0.005,0.2c-0.388-0.018-0.77,0.081-1.056,0.354c-3.189,3.053-7.836,7.47-12.654,5.288
				c-3.003-1.361-4.32-4.318-4.391-7.379c5.011,1.45,10.703,0.326,14.662-3.148c2.203-1.933,4.076-4.619,4.205-7.64
				c0.13-3.055-1.695-5.716-4.615-6.665c-6.294-2.046-12.228,3.68-15.255,8.606c-3.393,5.521-3.834,13.082,1.275,17.738
				c2.637,2.402,6.228,3.095,9.632,2.191c3.454-0.917,6.179-3.204,8.723-5.606c0.779,2.758,2.453,5.236,5.261,6.281
				c3.852,1.432,7.604-0.124,10.534-2.61c0.184,0.596,0.429,1.178,0.769,1.734c1.107,1.813,3.044,2.957,5.188,2.845
				c2.217-0.116,4.071-1.567,5.582-3.066c1.351-1.34,2.568-2.815,3.658-4.38c0.088,0.78,0.219,1.547,0.423,2.281
				c0.945,3.414,4.343,4.664,7.413,3.033c5.489-2.916,8.259-10.059,8.166-15.987C311.555,97.006,313.613,92.283,313.64,87.31z
				 M297.381,73.74c0.845-0.961,1.919-2.285,3.248-2.554c1.27-0.257,2.062,0.998,2.309,2.077c0.35,1.527,0.129,3.221-0.208,4.729
				c-1.534,6.86-8.159,11.544-15.111,10.916c-0.18-0.016-0.344-0.002-0.502,0.025c2.007-3.955,4.356-7.733,7.049-11.266
				C295.191,76.321,296.264,75.011,297.381,73.74z M267.927,85.224c1.972-6.643,4.683-13.327,8.67-19.035
				c0.794-1.137,1.858-2.532,3.369-2.626c1.24-0.077,1.948,1.039,2.351,2.068c1.085,2.77,0.786,6.282-0.106,9.063
				c-2.064,6.435-7.828,10.784-14.493,11.278C267.79,85.723,267.854,85.472,267.927,85.224z M243.264,100.118
				c0.943-2.332,2.474-4.363,4.242-6.136c1.568-1.573,3.537-3.214,5.815-3.512c1.725-0.226,3.886,0.47,4.346,2.343
				c0.492,2.005-0.914,4.132-2.242,5.492c-3.156,3.233-8.281,4.387-12.522,2.872C243.01,100.816,243.126,100.46,243.264,100.118z
				 M298.107,97.755c0.724-1.203,2.211-3.546,3.903-2.971c1.618,0.55,2.151,2.423,2.358,4.072c-1.364,1.053-2.993,1.989-4.658,2.186
				c-0.71,0.084-1.737,0.018-2.164-0.674C297.055,99.574,297.696,98.439,298.107,97.755z M300.126,111.706
				c-1.207,1.264-3.667,3.069-4.3,0.414c-0.633-2.654-0.304-5.721,0.135-8.408c2.259,1.513,5.428,0.879,7.791-0.304
				c0.199-0.1,0.388-0.212,0.582-0.318C303.859,106.3,302.364,109.363,300.126,111.706z"/>
		</g>
	</g>
	<g>
		<defs>
			<rect id="SVGID_00000041289002541248106270000001700594466194868391_" width="500" height="500"/>
		</defs>
		<clipPath id="SVGID_00000047030610543163814970000000335163795430128522_">
			<use xlink:href="#SVGID_00000041289002541248106270000001700594466194868391_"  style="overflow:visible;"/>
		</clipPath>
		<g style="clip-path:url(#SVGID_00000047030610543163814970000000335163795430128522_);">
			<path style="fill:#E4A4CE;" d="M284.426,247.212c0.193-0.323-2.297-1.676-2.589-1.898l0.002-0.024
				c-1.421-1.032-2.751-2.007-3.99-2.924c-0.247-0.193-0.496-0.362-0.721-0.529c-1.62-1.22-2.096-1.291-0.606-0.469
				c0.115,0.059,0.204,0.141,0.295,0.198c0.002-0.025,0.002-0.025,0.002-0.025l-0.024-0.002l0.002-0.023
				c-0.115-0.06-0.225-0.167-0.316-0.224c-0.47-0.384-1.459-1.133-1.457-1.156c-0.024-0.002-0.024-0.002-0.046-0.029
				c0,0-0.024-0.002-0.022-0.026c-0.115-0.059-0.249-0.169-0.359-0.277c-0.137-0.086-0.268-0.22-0.405-0.305
				c-0.201-0.165-0.403-0.329-0.604-0.494l-0.024-0.002c0,0-0.024-0.002-0.022-0.026c-0.024-0.002-0.024-0.002-0.024-0.002
				c-3.607-2.645-7.413-2.992-11.156-2.003c-6.298,1.681-12.332,7.107-16.559,11.574c-5.957,6.617-13.329,17.347-6.495,25.788
				c1.003,1.112,1.946,2.339,2.946,3.475c0.021,0.026,6.584,7.445,6.606,7.471C248.861,285.279,272.586,267.007,284.426,247.212z"/>
			<path style="fill:#E4A4CE;" d="M293.525,338.867c0.287-0.08,0.573-0.161,0.876-0.241c0.032-0.016,0.064-0.016,0.096-0.032
				c0.143-0.032,0.271-0.08,0.414-0.128c0.143-0.032,0.287-0.08,0.414-0.144c0.255-0.08,0.509-0.16,0.764-0.273
				c0.159-0.048,0.318-0.112,0.478-0.176c2.547-0.93,4.982-2.29,7.368-3.777c0.064-0.032,0.127-0.08,0.191-0.128
				c0.366-0.224,0.732-0.448,1.098-0.688c0.541-0.352,1.098-0.735,1.654-1.135c0.111-0.08,0.223-0.16,0.35-0.272
				c0.159-0.096,0.318-0.224,0.493-0.352l0.016,0c0.286-0.208,0.573-0.416,0.875-0.639c0.398-0.288,0.811-0.607,1.209-0.911
				c0.127-0.096,0.254-0.192,0.398-0.304c0.35-0.272,0.716-0.543,1.066-0.847c5.853-4.57,11.734-10.272,16.691-16.29
				c0.413-0.479,0.81-0.958,1.192-1.437c0.413-0.479,0.779-0.974,1.16-1.452c0.318-0.399,0.62-0.798,0.905-1.197
				c6.115-8.06,10.509-16.61,10.269-23.843c-0.016-0.159-0.048-0.335-0.097-0.494c-0.032-0.127-0.064-0.239-0.096-0.35
				c-0.016-0.064-0.032-0.112-0.048-0.175c-0.048-0.159-0.112-0.318-0.192-0.462c-0.064-0.159-0.144-0.302-0.224-0.446
				c11.37,18.201,21.23,31.067,27.733,38.923c0.032,0.032,0.048,0.064,0.08,0.095c0.272,0.334,0.496,0.7,0.672,1.098
				c0.176,0.414,0.305,0.86,0.37,1.353c0.032,0.159,0.049,0.335,0.049,0.494c0.033,0.494,0.018,1.036-0.044,1.593
				c0,0.048-0.016,0.096-0.016,0.143c-0.031,0.351-0.094,0.733-0.189,1.116c-0.016,0.064-0.032,0.128-0.047,0.207
				c-0.047,0.223-0.111,0.446-0.174,0.685c-0.142,0.574-0.348,1.18-0.585,1.786c-0.079,0.239-0.174,0.462-0.253,0.686l-0.016,0.016
				c-0.095,0.239-0.19,0.478-0.301,0.718c-0.111,0.223-0.206,0.447-0.301,0.67c-0.016,0.016-0.032,0.032-0.032,0.048
				c-0.428,0.925-0.92,1.866-1.459,2.823c-0.19,0.319-0.381,0.638-0.571,0.957c-0.159,0.271-0.333,0.542-0.508,0.83
				c-0.413,0.638-0.826,1.277-1.27,1.931c-0.222,0.335-0.46,0.686-0.715,1.037c-0.397,0.559-0.794,1.117-1.223,1.676
				c-0.254,0.335-0.508,0.686-0.778,1.021c-0.397,0.511-0.794,1.022-1.207,1.532c-6.228,7.582-14.368,14.93-21.131,18.722
				c-0.398,0.224-0.796,0.432-1.178,0.64c-0.334,0.16-0.668,0.336-1.003,0.48c-3.661,1.618-6.815,1.975-8.889,0.435
				c-0.271-0.191-0.559-0.397-0.846-0.619c-1.468-1.08-3.048-2.224-4.74-3.431l0-0.016c-0.351-0.254-0.718-0.508-1.085-0.762
				c-1.372-0.953-2.809-1.953-4.341-2.985c-0.543-0.381-1.101-0.762-1.676-1.143c-1.723-1.143-3.558-2.35-5.489-3.588
				c-0.91-0.587-1.835-1.175-2.792-1.794c-1.085-0.667-2.186-1.365-3.303-2.048c-1.069-0.667-2.154-1.349-3.287-2.016
				c-3.813-2.301-7.961-4.729-12.46-7.268c0.223,0.095,0.447,0.19,0.67,0.253c0.016,0,0.016,0,0.032,0
				c0.064,0.032,0.128,0.063,0.191,0.079c0.112,0.032,0.239,0.047,0.367,0.063c0.048,0.016,0.111,0.016,0.175,0.031
				c0.175,0.047,0.351,0.063,0.542,0.078c1.227,0.109,2.485-0.085,3.68-0.359C293.509,338.867,293.525,338.867,293.525,338.867z"/>
			<g>
				<path style="fill:#373C70;" d="M315.165,371.938c-0.221,0-0.444-0.059-0.647-0.182c-0.59-0.357-0.778-1.127-0.42-1.717
					c0.842-1.388,2.331-3.452,3.77-5.449c1.381-1.913,2.944-4.082,3.269-4.777c0.291-0.626,1.036-0.896,1.661-0.604
					c0.626,0.292,0.896,1.035,0.604,1.661c-0.396,0.848-1.588,2.523-3.506,5.183c-1.412,1.958-2.871,3.981-3.662,5.284
					C315.999,371.724,315.587,371.938,315.165,371.938z"/>
			</g>
			<g>
				<path style="fill:#373C70;" d="M295.104,354.548c-0.37,0-0.736-0.163-0.982-0.477c-0.428-0.542-0.335-1.328,0.208-1.755
					c1.57-1.238,3.369-3.012,4.798-6.772c0.246-0.646,0.966-0.967,1.613-0.725c0.646,0.246,0.97,0.968,0.725,1.613
					c-1.656,4.355-3.856,6.481-5.589,7.847C295.648,354.46,295.375,354.548,295.104,354.548z"/>
			</g>
			<g>
				<path style="fill:#373C70;" d="M205.91,309.753c-1.345,0-2.628-0.149-3.834-0.474c-0.212-0.057-0.405-0.168-0.56-0.323
					c-7.075-7.077,4.971-28.424,10.479-37.273c4.347-7.486,15.118-20.659,21.371-27.612c9.535-10.395,21.321-22.475,36.5-33.326
					l0.342-0.228c9.558-6.339,24-15.925,34.739-13.794c0.132,0.026,0.257,0.072,0.373,0.138c6.471,3.661,0.734,17.905-3.26,26.07
					c-10.797,21.59-31.09,45.839-54.288,64.877c-0.008,0.007-0.016,0.014-0.023,0.02
					C239.741,294.076,219.656,309.753,205.91,309.753z M203.064,306.95c12.398,2.9,34.681-14.487,43.132-21.083
					c22.936-18.825,42.981-42.767,53.621-64.044c4.734-9.677,7.898-20.364,4.429-22.688c-9.716-1.749-23.509,7.397-32.658,13.466
					l-0.307,0.203c-14.955,10.692-26.626,22.656-36.066,32.947c-5.995,6.666-16.849,19.936-21.079,27.22
					C206.278,285.598,198.778,301.904,203.064,306.95z M246.977,286.843h0.01H246.977z"/>
			</g>
			<g>
				<path style="fill:#373C70;" d="M340.777,371.873c-3.338,0-6.458-1.025-9.318-3.069c-0.126-0.066-0.239-0.151-0.336-0.252
					c-0.175-0.154-0.361-0.295-0.533-0.423c-0.063-0.039-0.177-0.13-0.289-0.223c-0.048-0.039-0.093-0.079-0.143-0.112
					c-0.043-0.028-0.084-0.06-0.123-0.093c-0.083-0.072-0.154-0.139-0.234-0.194c-0.111-0.059-0.212-0.134-0.3-0.222
					c-0.201-0.157-0.411-0.317-0.623-0.479c-0.339-0.258-0.682-0.52-1.001-0.78c-0.067-0.048-0.14-0.102-0.212-0.159l-0.089-0.067
					c-0.051-0.03-0.099-0.063-0.145-0.101c-0.163-0.116-0.31-0.246-0.438-0.387c-0.169-0.119-0.339-0.247-0.514-0.38l-0.224-0.169
					c-1.444-1.069-3.025-2.198-4.718-3.401c-0.063-0.044-0.12-0.094-0.173-0.148c-0.174-0.128-0.356-0.252-0.542-0.378l-0.895-0.62
					c-1.199-0.833-2.456-1.707-3.784-2.609l-0.245-0.169c-0.456-0.313-0.926-0.637-1.408-0.947c-1.751-1.173-3.59-2.374-5.484-3.582
					c-0.919-0.598-1.83-1.188-2.796-1.799l-1.155-0.72c-0.7-0.438-1.407-0.88-2.122-1.307l-0.434-0.272
					c-0.923-0.58-1.862-1.171-2.844-1.747c-4.228-2.556-8.289-4.924-12.43-7.248c-17.658-8.721-37.229-14.334-56.155-19.763
					c-3.104-0.891-6.202-1.779-9.287-2.68c-0.5-0.146-0.857-0.586-0.896-1.105c-0.04-0.518,0.247-1.008,0.718-1.228
					c9.175-4.278,18.329-10.833,24.387-15.171l1.307-0.935c2.714-2.036,5.389-4.154,7.925-6.278l1.173-0.996
					c0.489-0.415,0.982-0.833,1.475-1.256c12.931-10.951,25.055-23.839,35.068-37.273l0.604-0.81
					c0.341-0.456,0.685-0.914,1.02-1.379c0.397-0.51,0.747-1.001,1.093-1.484l0.451-0.628c1.13-1.547,2.29-3.212,3.652-5.245
					c4.256-6.538,10.346-16.398,13.97-26.328c0.179-0.49,0.643-0.817,1.165-0.821c0.003,0,0.006,0,0.009,0
					c0.518,0,0.983,0.32,1.168,0.804c0.216,0.565,0.393,1.072,0.569,1.636c0.008,0.025,0.015,0.05,0.021,0.076
					c0.741,2.146,1.479,4.296,2.22,6.45c6.195,18.045,12.602,36.705,21.367,53.799c0.031,0.043,0.061,0.088,0.087,0.135
					c0.179,0.321,0.397,0.694,0.649,1.124c0.272,0.463,0.58,0.99,0.918,1.586c0.008,0.014,0.015,0.026,0.023,0.04
					c11.414,18.226,21.289,31.085,27.574,38.674c0.033,0.03,0.064,0.062,0.095,0.095c0.531,0.596,1.045,1.209,1.557,1.821
					c0.657,0.784,1.277,1.525,1.938,2.234c6.636,8.092,4.046,19.184-7.438,32.139c-7.35,7.857-13.892,12.476-20.018,14.142
					C343.969,371.647,342.349,371.873,340.777,371.873z M333.004,366.834c3.59,2.53,7.508,3.169,11.972,1.944
					c5.59-1.52,11.924-6.032,18.828-13.412c7.341-8.282,14.607-20.027,7.406-28.812c-0.654-0.697-1.325-1.499-1.975-2.274
					c-0.482-0.576-0.964-1.152-1.462-1.712c-0.051-0.046-0.096-0.094-0.133-0.138c-6.362-7.677-16.314-20.63-27.813-38.985
					c-0.066-0.087-0.122-0.182-0.164-0.284c-0.306-0.536-0.586-1.015-0.834-1.438c-0.219-0.374-0.414-0.707-0.581-1.001
					c-0.051-0.064-0.096-0.132-0.133-0.205c-8.895-17.303-15.353-36.112-21.598-54.303c-0.561-1.636-1.122-3.271-1.685-4.903
					c-3.744,9.042-9.108,17.697-12.985,23.652c-1.391,2.075-2.569,3.768-3.717,5.339l-0.439,0.609
					c-0.365,0.513-0.737,1.031-1.128,1.532c-0.316,0.44-0.668,0.91-1.019,1.377l-0.598,0.801
					c-10.127,13.589-22.386,26.618-35.453,37.686c-0.49,0.421-0.988,0.843-1.482,1.262l-1.173,0.996
					c-2.581,2.161-5.29,4.308-8.063,6.388l-1.327,0.95c-5.496,3.935-13.508,9.671-21.866,13.97c2.056,0.595,4.116,1.186,6.178,1.777
					c19.033,5.459,38.712,11.104,56.631,19.955c4.223,2.368,8.307,4.75,12.543,7.312c0.99,0.581,1.951,1.185,2.895,1.777
					l0.409,0.258c0.706,0.422,1.428,0.873,2.142,1.319l1.154,0.719c0.987,0.623,1.906,1.22,2.825,1.817
					c1.901,1.212,3.756,2.423,5.504,3.595c0.483,0.312,0.975,0.648,1.451,0.976l0.239,0.164c1.331,0.905,2.595,1.784,3.801,2.623
					l0.877,0.606c0.275,0.188,0.545,0.372,0.795,0.565c0.038,0.03,0.074,0.062,0.109,0.095c1.649,1.174,3.192,2.277,4.611,3.327
					l0.244,0.184c0.191,0.146,0.377,0.288,0.563,0.411c0.082,0.054,0.155,0.116,0.221,0.186l0.527,0.394
					c0.084,0.063,0.157,0.134,0.221,0.211c0.279,0.226,0.576,0.451,0.868,0.675c0.235,0.179,0.469,0.357,0.69,0.53
					c0.055,0.034,0.105,0.071,0.154,0.112c0.128,0.091,0.251,0.192,0.384,0.306c0.091,0.065,0.179,0.136,0.267,0.207
					c0.047,0.039,0.093,0.079,0.143,0.112c0.249,0.185,0.476,0.356,0.686,0.538C332.82,366.679,332.918,366.75,333.004,366.834z
					 M330.348,366.365h0.01H330.348z M369.198,320.558c0.001,0.001,0.002,0.001,0.003,0.002
					C369.2,320.559,369.199,320.559,369.198,320.558z"/>
			</g>
			<g>
				<path style="fill:#373C70;" d="M205.869,321.54c-5.068,0.001-9.151-1.717-12.213-5.152
					c-17.158-19.256,18.896-63.991,20.439-65.887c8.816-11.652,25.33-29.501,42.297-43.046
					c15.001-11.975,36.272-25.296,52.413-20.753c0.051,0.014,0.1,0.032,0.147,0.054c10.432,4.801,12.753,15.312,6.898,31.239
					c-0.035,0.096-0.083,0.183-0.143,0.26c-3.987,10.134-9.963,20.858-17.766,31.879l-0.471,0.651
					c-0.358,0.498-0.718,0.998-1.086,1.491l-1.631,2.197c-10.081,13.249-22.657,26.611-35.42,37.639
					c-0.895,0.771-1.788,1.523-2.666,2.262c-2.571,2.156-5.277,4.302-8.042,6.378l-1.46,1.042
					c-6.102,4.359-15.322,10.946-24.619,15.279C216.157,320.052,210.586,321.54,205.869,321.54z M301.829,187.781
					c-28.082,0-70.023,42.627-86.161,63.956c-0.389,0.479-36.55,45.329-20.519,63.321c5.255,5.895,14.19,5.962,26.555,0.204
					c9.13-4.255,18.26-10.778,24.301-15.094l1.442-1.029c2.717-2.04,5.393-4.163,7.936-6.296c0.871-0.731,1.759-1.48,2.646-2.244
					c12.659-10.938,25.134-24.193,35.124-37.322l1.626-2.19c0.365-0.489,0.719-0.98,1.069-1.468l0.468-0.648
					c7.78-10.99,13.721-21.675,17.648-31.747c0.031-0.079,0.071-0.153,0.119-0.219c5.279-14.569,3.296-24.123-5.896-28.398
					C306.168,188.046,304.041,187.781,301.829,187.781z M205.922,309.505c-1.327,0-2.593-0.148-3.782-0.467
					c-0.17-0.045-0.324-0.135-0.448-0.259c-7.144-7.145,6.241-30.1,10.514-36.965c4.295-7.395,15.278-20.832,21.344-27.577
					c9.525-10.384,21.299-22.452,36.459-33.289l0.335-0.223c9.524-6.317,23.908-15.865,34.554-13.757
					c0.105,0.021,0.205,0.058,0.298,0.111c6.526,3.692-0.177,19.233-3.361,25.743c-10.781,21.558-31.05,45.777-54.222,64.794
					C239.609,293.862,219.568,309.505,205.922,309.505z M202.928,307.175c12.504,3.015,34.949-14.498,43.434-21.12
					c22.947-18.833,43.021-42.809,53.679-64.12c4.452-9.101,8.216-20.532,4.3-23.037c-9.815-1.803-23.692,7.394-32.892,13.494
					l-0.306,0.203c-14.982,10.71-26.664,22.687-36.113,32.987c-6.003,6.676-16.872,19.965-21.111,27.263
					C205.992,285.585,198.447,302.086,202.928,307.175z"/>
			</g>
			<g>
				<path style="fill:#373C70;" d="M333.202,284.95c-0.352,0-0.7-0.147-0.947-0.434c-9.986-11.58-17.335-25.514-21.252-40.296
					c-0.177-0.667,0.221-1.352,0.888-1.528c0.666-0.174,1.352,0.221,1.528,0.888c3.821,14.418,10.989,28.009,20.729,39.304
					c0.451,0.522,0.393,1.313-0.13,1.763C333.781,284.851,333.491,284.95,333.202,284.95z"/>
			</g>
			<g>
				<g>
					<path style="fill:#373C70;" d="M321.724,438.969c-0.486,0-0.949-0.285-1.151-0.761l-9.817-23.104
						c-0.087-0.205-0.118-0.43-0.089-0.651c0.043-0.332,1.081-8.211,2.658-13.598c1.463-5.002,9.935-21.141,22.941-26.395
						c0.234-0.234,0.794-0.941,0.465-2.092c-0.19-0.664,0.193-1.357,0.856-1.546c0.664-0.189,1.355,0.193,1.546,0.856
						c0.704,2.453-0.586,4.213-1.46,4.865c-0.089,0.066-0.186,0.121-0.29,0.162c-11.585,4.563-20.072,19.423-21.659,24.851
						c-1.344,4.59-2.316,11.317-2.533,12.885l9.683,22.787c0.271,0.636-0.026,1.37-0.661,1.64
						C322.052,438.937,321.887,438.969,321.724,438.969z"/>
				</g>
				<g>
					<path style="fill:#373C70;" d="M256.418,410.9c-1.613,0-3.252-0.451-4.647-1.354c-4.834-3.13-12.956-18.931-12.113-27.743
						c0.242-2.531,1.27-4.548,3.056-5.992c2.646-2.141,6.26-2.413,8.14-2.391c0.566-3.405,2.023-5.848,4.343-7.271
						c3.095-1.898,6.887-1.419,9.04-0.903c0.164-2.945,1.184-5.187,3.04-6.674c2.64-2.117,6.285-2.095,8.53-1.816
						c-0.351-2.098-0.098-4.013,0.754-5.616c1.011-1.905,2.838-3.318,5.146-3.979c3.874-1.109,8.233,0.577,10.598,4.103
						l15.122,22.546c5.591-4.047,16.532-8.616,17.027-8.822c0.637-0.268,1.368,0.038,1.634,0.675
						c0.265,0.637-0.037,1.369-0.675,1.634c-0.126,0.053-12.677,5.293-17.483,9.28c-0.271,0.226-0.629,0.327-0.977,0.275
						c-0.351-0.051-0.662-0.247-0.859-0.541l-1.743-2.6c-0.066,3.157-1.313,6.696-5.223,9.139c-2.944,1.837-6.716,0.905-9.16-0.072
						c0.54,3.111,0.607,8.002-3.746,9.625c-3.511,1.312-6.612,0.629-8.596-0.178c0.15,2.902-0.329,7.504-4.498,9.259
						c-3.499,1.471-6.749,0.536-8.863-0.511c0.38,5.09-1.839,7.523-3.352,8.576C259.616,410.449,258.03,410.9,256.418,410.9z
						 M250.663,375.921c-1.565,0-4.421,0.244-6.386,1.839c-1.257,1.021-1.954,2.42-2.132,4.28
						c-0.741,7.753,6.809,22.703,10.983,25.406c1.961,1.269,4.574,1.288,6.354,0.05c2.161-1.505,2.841-4.619,1.914-8.77
						c-0.117-0.525,0.115-1.067,0.577-1.345c0.46-0.275,1.048-0.226,1.457,0.124c0.04,0.033,4.259,3.55,8.725,1.673
						c4.23-1.78,2.729-8.839,2.714-8.91c-0.112-0.51,0.104-1.036,0.543-1.319c0.438-0.284,1.007-0.266,1.425,0.047
						c0.153,0.112,3.888,2.787,8.509,1.064c4.149-1.548,1.616-9.082,1.59-9.158c-0.171-0.497-0.012-1.049,0.398-1.379
						c0.408-0.329,0.98-0.37,1.433-0.097c0.057,0.033,5.689,3.394,9.035,1.302c6.43-4.016,3.338-11.192,3.203-11.496
						c-0.095-0.213-0.125-0.438-0.099-0.653l-10.68-15.923c-1.768-2.636-4.985-3.904-7.832-3.094
						c-1.649,0.473-2.938,1.449-3.627,2.748c-0.796,1.501-0.829,3.398-0.097,5.636c0.143,0.438,0.034,0.918-0.284,1.251
						c-0.317,0.334-0.792,0.467-1.235,0.343c-0.052-0.012-5.335-1.412-8.318,0.987c-1.541,1.238-2.248,3.369-2.104,6.332
						c0.022,0.423-0.174,0.828-0.517,1.075c-0.343,0.248-0.789,0.303-1.184,0.151c-0.049-0.019-5.098-1.919-8.535,0.2
						c-1.874,1.153-2.988,3.363-3.311,6.566c-0.034,0.333-0.2,0.639-0.461,0.849c-0.261,0.21-0.599,0.3-0.927,0.269
						C251.782,375.967,251.344,375.921,250.663,375.921z"/>
				</g>
				<g>
					<path style="fill:#373C70;" d="M268.102,452.416c-0.61,0-1.146-0.448-1.235-1.071l-2.354-16.259
						c-16.706-5.319-16.127-28.434-16.094-29.43c0.023-0.69,0.629-1.217,1.29-1.207c0.689,0.022,1.23,0.601,1.208,1.29
						c-0.007,0.228-0.559,22.865,15.051,27.171c0.479,0.132,0.834,0.535,0.905,1.026l2.468,17.051
						c0.099,0.683-0.375,1.317-1.059,1.416C268.223,452.412,268.162,452.416,268.102,452.416z"/>
				</g>
				<g>
					<path style="fill:#373C70;" d="M276.18,432.757c-0.417,0-0.807-0.263-0.947-0.681c-0.177-0.522,0.105-1.09,0.628-1.267
						l23.367-7.886c0.522-0.181,1.09,0.103,1.267,0.628c0.177,0.523-0.105,1.09-0.628,1.267l-23.367,7.886
						C276.394,432.74,276.286,432.757,276.18,432.757z"/>
				</g>
				<g>
					<path style="fill:#373C70;" d="M262.296,400.167c-0.39,0-0.76-0.229-0.921-0.61l-10.495-24.818
						c-0.215-0.509,0.022-1.096,0.531-1.311c0.508-0.214,1.096,0.022,1.311,0.531l10.495,24.818
						c0.215,0.509-0.022,1.096-0.531,1.311C262.558,400.142,262.426,400.167,262.296,400.167z"/>
				</g>
				<g>
					<path style="fill:#373C70;" d="M276.385,391.706c-0.372,0-0.729-0.208-0.901-0.565l-11.243-23.333
						c-0.239-0.497-0.03-1.095,0.468-1.335c0.498-0.238,1.095-0.03,1.335,0.468l11.241,23.331c0.24,0.498,0.031,1.096-0.466,1.335
						C276.677,391.675,276.53,391.706,276.385,391.706z"/>
				</g>
				<g>
					<path style="fill:#373C70;" d="M288.595,381.993c-0.379,0-0.74-0.216-0.909-0.582l-10.959-23.802
						c-0.231-0.501-0.012-1.096,0.49-1.326c0.5-0.231,1.097-0.011,1.326,0.49l10.959,23.802c0.232,0.501,0.012,1.096-0.49,1.326
						C288.878,381.964,288.735,381.993,288.595,381.993z"/>
				</g>
				<g>
					<path style="fill:#373C70;" d="M278.473,411.723c-0.009,0-0.017,0-0.026,0c-0.552-0.015-0.987-0.474-0.974-1.026
						c0.163-6.212,1.751-12.418,4.591-17.947c0.254-0.49,0.854-0.685,1.347-0.433c0.491,0.253,0.685,0.855,0.433,1.347
						c-2.704,5.264-4.216,11.172-4.37,17.086C279.459,411.292,279.014,411.723,278.473,411.723z"/>
				</g>
				<path style="fill:#E4A4CE;" d="M264.139,451.914l61.522-15.429l3.521,9.838c0,0,7.516,1.019,13.365,9.297
					c5.849,8.278,46.804,113.185,46.804,113.185l-122.333-33.803l-2.824-59.509c0,0-0.009-7.967,2.435-10.37L264.139,451.914z"/>
				<g>
					<path style="fill:#373C70;" d="M279.29,465.132c-0.435,0-0.834-0.284-0.961-0.723c-0.153-0.53,0.152-1.085,0.684-1.238
						l44.173-12.773c0.533-0.15,1.085,0.152,1.238,0.684c0.153,0.53-0.152,1.085-0.684,1.238l-44.173,12.773
						C279.474,465.119,279.382,465.132,279.29,465.132z"/>
				</g>
				<g>
					<path style="fill:#373C70;" d="M278.01,490.643c-0.189,0-0.381-0.043-0.562-0.134c-0.616-0.311-0.864-1.063-0.554-1.679
						l4-7.932c0.311-0.617,1.063-0.864,1.679-0.554c0.617,0.31,0.864,1.063,0.554,1.679l-4,7.932
						C278.907,490.392,278.467,490.643,278.01,490.643z"/>
				</g>
				<g>
					<path style="fill:#373C70;" d="M303.779,494.453c-0.375,0-0.747-0.168-0.993-0.489l-4.941-6.442
						c-0.42-0.548-0.316-1.332,0.232-1.753c0.547-0.419,1.333-0.316,1.753,0.231l4.941,6.442c0.42,0.548,0.316,1.332-0.231,1.753
						C304.312,494.369,304.045,494.453,303.779,494.453z"/>
				</g>
				<g>
					<path style="fill:#373C70;" d="M309.08,475.935c-0.499,0-0.97-0.301-1.163-0.793c-0.253-0.642,0.064-1.368,0.706-1.62
						l11.105-4.362c0.644-0.254,1.368,0.064,1.62,0.706c0.253,0.643-0.063,1.368-0.706,1.62l-11.105,4.362
						C309.387,475.907,309.232,475.935,309.08,475.935z"/>
				</g>
				<g>
					<path style="fill:#373C70;" d="M333.991,498.926c-0.458,0-0.899-0.253-1.118-0.69l-4.672-9.322
						c-0.31-0.617-0.061-1.369,0.557-1.678c0.618-0.311,1.369-0.06,1.678,0.557l4.672,9.324c0.31,0.617,0.06,1.368-0.558,1.677
						C334.37,498.884,334.18,498.926,333.991,498.926z"/>
				</g>
				<g>
					<path style="fill:#373C70;" d="M340.481,478.673c-0.053,0-0.106-0.003-0.16-0.01c-0.685-0.087-1.169-0.713-1.082-1.398
						l1.056-8.288c0.087-0.685,0.711-1.169,1.398-1.082c0.685,0.087,1.169,0.713,1.082,1.398l-1.056,8.288
						C341.639,478.212,341.101,478.673,340.481,478.673z"/>
				</g>
				<g>
					<path style="fill:#373C70;" d="M320.393,515.578c-0.176,0-0.354-0.037-0.523-0.115l-8.839-4.082
						c-0.626-0.289-0.899-1.032-0.61-1.659c0.289-0.626,1.029-0.899,1.659-0.61l8.839,4.082c0.627,0.29,0.9,1.032,0.61,1.659
						C321.318,515.31,320.866,515.578,320.393,515.578z"/>
				</g>
				<g>
					<path style="fill:#373C70;" d="M287.93,515.593c-0.041,0-0.082-0.002-0.124-0.006c-0.688-0.067-1.189-0.679-1.122-1.366
						l0.865-8.809c0.067-0.688,0.669-1.189,1.366-1.122c0.688,0.067,1.189,0.679,1.122,1.366l-0.865,8.809
						C289.108,515.11,288.564,515.593,287.93,515.593z"/>
				</g>
				<g>
					<path style="fill:#373C70;" d="M280.9,528.732c-0.264,0-0.529-0.083-0.755-0.255l-5.889-4.47
						c-0.55-0.417-0.657-1.201-0.239-1.751c0.417-0.551,1.202-0.657,1.751-0.239l5.889,4.47c0.55,0.417,0.657,1.201,0.239,1.751
						C281.651,528.562,281.278,528.732,280.9,528.732z"/>
				</g>
				<g>
					<path style="fill:#373C70;" d="M303.869,529.543c-0.445,0-0.876-0.238-1.103-0.658c-0.326-0.608-0.099-1.366,0.51-1.693
						l6.741-3.619c0.605-0.325,1.366-0.099,1.692,0.511c0.326,0.608,0.098,1.366-0.511,1.692l-6.739,3.619
						C304.271,529.495,304.069,529.543,303.869,529.543z"/>
				</g>
				<g>
					<path style="fill:#373C70;" d="M338.864,526.148c-0.226,0-0.453-0.06-0.658-0.188c-0.587-0.364-0.767-1.135-0.403-1.722
						l4.373-7.048c0.365-0.586,1.136-0.765,1.722-0.403c0.587,0.364,0.767,1.135,0.403,1.722l-4.373,7.048
						C339.69,525.938,339.282,526.148,338.864,526.148z"/>
				</g>
				<g>
					<path style="fill:#373C70;" d="M353.018,510.292c-0.37,0-0.736-0.163-0.983-0.477l-5.556-7.061
						c-0.427-0.542-0.333-1.328,0.21-1.755c0.541-0.428,1.327-0.332,1.755,0.21l5.556,7.059c0.427,0.543,0.333,1.329-0.209,1.756
						C353.561,510.204,353.289,510.292,353.018,510.292z"/>
				</g>
				<g>
					<path style="fill:#373C70;" d="M352.718,528.342c-0.424,0-0.837-0.215-1.071-0.604c-0.357-0.591-0.166-1.359,0.425-1.716
						l7.23-4.359c0.593-0.357,1.36-0.166,1.716,0.425c0.356,0.591,0.166,1.359-0.425,1.716l-7.23,4.359
						C353.16,528.284,352.937,528.342,352.718,528.342z"/>
				</g>
				<g>
					<path style="fill:#373C70;" d="M320.226,538.977c-0.288,0-0.578-0.1-0.814-0.303c-0.523-0.45-0.582-1.239-0.132-1.763
						l5.23-6.079c0.45-0.521,1.238-0.582,1.763-0.132c0.523,0.45,0.582,1.239,0.132,1.763l-5.23,6.079
						C320.927,538.829,320.578,538.977,320.226,538.977z"/>
				</g>
				<g>
					<path style="fill:#373C70;" d="M305.045,542.845c-0.247,0-0.496-0.072-0.713-0.225l-5.448-3.793
						c-0.567-0.394-0.706-1.173-0.312-1.739c0.394-0.567,1.176-0.708,1.739-0.312l5.448,3.793c0.567,0.393,0.706,1.173,0.312,1.739
						C305.829,542.658,305.44,542.845,305.045,542.845z"/>
				</g>
				<g>
					<path style="fill:#373C70;" d="M333.363,548.84c-0.626,0-1.167-0.47-1.24-1.107c-0.078-0.687,0.414-1.306,1.1-1.385
						l10.207-1.168c0.684-0.075,1.306,0.413,1.385,1.1c0.078,0.687-0.414,1.306-1.1,1.385l-10.207,1.168
						C333.459,548.837,333.411,548.84,333.363,548.84z"/>
				</g>
				<g>
					<path style="fill:#373C70;" d="M358.81,549.804c-0.267,0-0.534-0.085-0.762-0.26c-0.547-0.421-0.648-1.206-0.227-1.753
						l5.748-7.464c0.421-0.546,1.206-0.648,1.753-0.227c0.547,0.421,0.648,1.206,0.228,1.753l-5.748,7.464
						C359.555,549.636,359.185,549.804,358.81,549.804z"/>
				</g>
			</g>
			<g>
				<path style="fill:#373C70;" d="M241.652,268.736c-0.353,0-0.693-0.186-0.876-0.516c-0.268-0.483-0.093-1.092,0.391-1.359
					c9.96-5.511,18.123-14.214,22.986-24.506c0.236-0.498,0.832-0.715,1.331-0.477c0.5,0.236,0.713,0.832,0.478,1.331
					c-5.041,10.669-13.503,19.689-23.826,25.402C241.982,268.695,241.816,268.736,241.652,268.736z"/>
			</g>
		</g>
	</g>
</g>
</svg>
