<svg width="618" height="34" viewBox="0 0 618 34" fill="none" xmlns="http://www.w3.org/2000/svg">
<path fill-rule="evenodd" clip-rule="evenodd" d="M77.25 16C81.6683 16 85.25 12.4183 85.25 8C85.25 3.58172 81.6683 0 77.25 0C72.8317 0 69.25 3.58172 69.25 8C69.25 12.4183 72.8317 16 77.25 16Z" fill="#9B51E0"/>
<path fill-rule="evenodd" clip-rule="evenodd" d="M82.1997 6.29289C82.5903 5.90237 82.5903 5.26921 82.1997 4.87868C81.8092 4.48816 81.1761 4.48816 80.7855 4.87868L75.8358 9.82843L73.7145 7.70711C73.3239 7.31658 72.6908 7.31658 72.3003 7.70711C71.9097 8.09763 71.9097 8.7308 72.3003 9.12132L75.1287 11.9497C75.5192 12.3403 76.1524 12.3403 76.5429 11.9497L82.1997 6.29289Z" fill="white"/>
<rect x="85.25" y="7" width="69.25" height="2" fill="#9B51E0"/>
<path d="M46.0074 23.264C46.0074 23.872 45.8674 24.388 45.5874 24.812C45.3074 25.228 44.9354 25.54 44.4714 25.748C44.0154 25.956 43.5234 26.06 42.9954 26.06H41.1714V29H40.1034V20.504H42.9714C43.8594 20.504 44.5874 20.728 45.1554 21.176C45.7234 21.624 46.0074 22.32 46.0074 23.264ZM41.1594 21.356V25.196H42.8994C43.4674 25.196 43.9434 25.032 44.3274 24.704C44.7194 24.376 44.9154 23.9 44.9154 23.276C44.9154 22.604 44.7194 22.116 44.3274 21.812C43.9434 21.508 43.4594 21.356 42.8754 21.356H41.1594ZM48.4234 20.504V29H47.4034V20.504H48.4234ZM49.9571 27.332C49.9571 26.54 50.2411 25.992 50.8091 25.688C51.3851 25.376 52.2491 25.22 53.4011 25.22C53.6811 25.22 53.8931 25.224 54.0371 25.232V24.884C54.0371 24.428 53.9131 24.088 53.6651 23.864C53.4171 23.64 53.0371 23.528 52.5251 23.528C51.8771 23.528 51.2651 23.7 50.6891 24.044L50.3291 23.36C51.0171 22.936 51.7691 22.724 52.5851 22.724C53.4411 22.724 54.0651 22.924 54.4571 23.324C54.8571 23.724 55.0571 24.332 55.0571 25.148V27.644C55.0571 28.084 55.0851 28.536 55.1411 29H54.2051C54.1491 28.648 54.1211 28.372 54.1211 28.172H54.0851C53.8611 28.5 53.5771 28.748 53.2331 28.916C52.8971 29.084 52.4611 29.168 51.9251 29.168C51.3331 29.168 50.8571 29.012 50.4971 28.7C50.1371 28.38 49.9571 27.924 49.9571 27.332ZM54.0371 26.744V25.952L53.4971 25.94C52.8971 25.94 52.4171 25.98 52.0571 26.06C51.7051 26.14 51.4411 26.276 51.2651 26.468C51.0971 26.66 51.0131 26.928 51.0131 27.272C51.0131 27.624 51.1171 27.896 51.3251 28.088C51.5331 28.272 51.8211 28.364 52.1891 28.364C52.5731 28.364 52.9051 28.284 53.1851 28.124C53.4651 27.956 53.6771 27.748 53.8211 27.5C53.9651 27.252 54.0371 27 54.0371 26.744ZM59.6279 22.724C60.0119 22.724 60.3759 22.784 60.7199 22.904C61.0719 23.016 61.3839 23.176 61.6559 23.384L61.2479 24.092C60.7839 23.748 60.2439 23.576 59.6279 23.576C58.9719 23.576 58.4759 23.792 58.1399 24.224C57.8039 24.648 57.6359 25.22 57.6359 25.94C57.6359 26.644 57.8039 27.216 58.1399 27.656C58.4759 28.088 58.9679 28.304 59.6159 28.304C60.1679 28.304 60.7159 28.132 61.2599 27.788L61.6319 28.508C61.0239 28.948 60.3279 29.168 59.5439 29.168C58.8559 29.168 58.2919 29.016 57.8519 28.712C57.4119 28.4 57.0919 28 56.8919 27.512C56.6999 27.024 56.6039 26.5 56.6039 25.94C56.6039 24.964 56.8719 24.184 57.4079 23.6C57.9439 23.016 58.6839 22.724 59.6279 22.724ZM68.0196 26.312H63.4836C63.5236 26.936 63.7116 27.432 64.0476 27.8C64.3836 28.168 64.8636 28.352 65.4876 28.352C65.8556 28.352 66.1836 28.304 66.4716 28.208C66.7676 28.104 67.0636 27.952 67.3596 27.752L67.8156 28.412C67.4716 28.66 67.1036 28.848 66.7116 28.976C66.3276 29.104 65.8996 29.168 65.4276 29.168C64.4916 29.168 63.7596 28.872 63.2316 28.28C62.7116 27.688 62.4516 26.9 62.4516 25.916C62.4516 25.284 62.5636 24.728 62.7876 24.248C63.0116 23.768 63.3356 23.396 63.7596 23.132C64.1916 22.86 64.7076 22.724 65.3076 22.724C66.1956 22.724 66.8716 23.012 67.3356 23.588C67.8076 24.164 68.0436 24.928 68.0436 25.88C68.0436 26.072 68.0356 26.216 68.0196 26.312ZM67.0476 25.52C67.0316 24.912 66.8756 24.424 66.5796 24.056C66.2836 23.688 65.8556 23.504 65.2956 23.504C64.7276 23.504 64.2876 23.696 63.9756 24.08C63.6636 24.456 63.4956 24.936 63.4716 25.52H67.0476ZM69.6807 20.504H70.7007V23.744H70.7247C70.9247 23.44 71.1967 23.196 71.5407 23.012C71.8847 22.82 72.3087 22.724 72.8127 22.724C73.5807 22.724 74.1487 22.948 74.5167 23.396C74.8847 23.836 75.0687 24.388 75.0687 25.052V29H74.0487V25.256C74.0487 24.768 73.9287 24.368 73.6887 24.056C73.4487 23.736 73.0607 23.576 72.5247 23.576C71.9727 23.576 71.5287 23.76 71.1927 24.128C70.8647 24.488 70.7007 24.944 70.7007 25.496V29H69.6807V20.504ZM82.7515 25.928C82.7515 26.56 82.6275 27.124 82.3795 27.62C82.1395 28.108 81.7875 28.488 81.3235 28.76C80.8675 29.032 80.3195 29.168 79.6795 29.168C79.0475 29.168 78.4995 29.032 78.0355 28.76C77.5715 28.48 77.2195 28.096 76.9795 27.608C76.7395 27.12 76.6195 26.56 76.6195 25.928C76.6195 24.952 76.8875 24.176 77.4235 23.6C77.9595 23.016 78.7115 22.724 79.6795 22.724C80.3275 22.724 80.8795 22.86 81.3355 23.132C81.7995 23.396 82.1515 23.768 82.3915 24.248C82.6315 24.728 82.7515 25.288 82.7515 25.928ZM77.6755 25.928C77.6755 26.656 77.8395 27.244 78.1675 27.692C78.5035 28.132 79.0075 28.352 79.6795 28.352C80.3595 28.352 80.8675 28.132 81.2035 27.692C81.5395 27.244 81.7075 26.656 81.7075 25.928C81.7075 25.2 81.5395 24.62 81.2035 24.188C80.8675 23.756 80.3595 23.54 79.6795 23.54C78.9995 23.54 78.4955 23.756 78.1675 24.188C77.8395 24.62 77.6755 25.2 77.6755 25.928ZM85.4195 20.504V29H84.3995V20.504H85.4195ZM92.9652 29H92.0172C91.9612 28.648 91.9332 28.344 91.9332 28.088H91.9092C91.4532 28.808 90.7252 29.168 89.7252 29.168C88.8612 29.168 88.1972 28.872 87.7332 28.28C87.2772 27.688 87.0492 26.916 87.0492 25.964C87.0492 25.356 87.1612 24.808 87.3852 24.32C87.6172 23.824 87.9452 23.436 88.3692 23.156C88.7932 22.868 89.2932 22.724 89.8692 22.724C90.6852 22.724 91.3492 22.988 91.8612 23.516V20.504H92.8812V27.644C92.8812 28.084 92.9092 28.536 92.9652 29ZM91.8612 26.372V24.452C91.6212 24.148 91.3492 23.924 91.0452 23.78C90.7492 23.628 90.4052 23.552 90.0132 23.552C89.4212 23.552 88.9532 23.776 88.6092 24.224C88.2732 24.672 88.1052 25.252 88.1052 25.964C88.1052 26.7 88.2692 27.284 88.5972 27.716C88.9252 28.14 89.3772 28.352 89.9532 28.352C90.5292 28.352 90.9892 28.168 91.3332 27.8C91.6852 27.424 91.8612 26.948 91.8612 26.372ZM100.07 26.312H95.5343C95.5743 26.936 95.7623 27.432 96.0983 27.8C96.4343 28.168 96.9143 28.352 97.5383 28.352C97.9063 28.352 98.2343 28.304 98.5223 28.208C98.8183 28.104 99.1143 27.952 99.4103 27.752L99.8663 28.412C99.5223 28.66 99.1543 28.848 98.7623 28.976C98.3783 29.104 97.9503 29.168 97.4783 29.168C96.5423 29.168 95.8103 28.872 95.2823 28.28C94.7623 27.688 94.5023 26.9 94.5023 25.916C94.5023 25.284 94.6143 24.728 94.8383 24.248C95.0623 23.768 95.3863 23.396 95.8103 23.132C96.2423 22.86 96.7583 22.724 97.3583 22.724C98.2463 22.724 98.9223 23.012 99.3863 23.588C99.8583 24.164 100.094 24.928 100.094 25.88C100.094 26.072 100.086 26.216 100.07 26.312ZM99.0983 25.52C99.0823 24.912 98.9263 24.424 98.6303 24.056C98.3343 23.688 97.9063 23.504 97.3463 23.504C96.7783 23.504 96.3383 23.696 96.0263 24.08C95.7143 24.456 95.5463 24.936 95.5223 25.52H99.0983ZM101.72 24.26C101.72 23.812 101.692 23.356 101.636 22.892H102.608C102.648 23.164 102.676 23.488 102.692 23.864H102.716C103.068 23.104 103.708 22.724 104.636 22.724C104.7 22.724 104.816 22.736 104.984 22.76L104.924 23.636C104.844 23.62 104.72 23.612 104.552 23.612C103.968 23.612 103.52 23.808 103.208 24.2C102.896 24.592 102.74 25.1 102.74 25.724V29H101.72V24.26ZM114.62 28.112V29H109.412V28.124H111.716V21.596L109.424 22.784L109.004 22.016L111.836 20.504H112.772V28.112H114.62Z" fill="#898F8F"/>
<rect x="154.5" y="7" width="69.25" height="2" fill="#9B51E0"/>
<path fill-rule="evenodd" clip-rule="evenodd" d="M231.75 16C236.168 16 239.75 12.4183 239.75 8C239.75 3.58172 236.168 0 231.75 0C227.332 0 223.75 3.58172 223.75 8C223.75 12.4183 227.332 16 231.75 16Z" fill="#9B51E0"/>
<path fill-rule="evenodd" clip-rule="evenodd" d="M231.75 12C233.959 12 235.75 10.2091 235.75 8C235.75 5.79086 233.959 4 231.75 4C229.541 4 227.75 5.79086 227.75 8C227.75 10.2091 229.541 12 231.75 12Z" fill="white"/>
<rect x="239.75" y="7" width="69.25" height="2" fill="#E0E0E7"/>
<path d="M200.507 23.264C200.507 23.872 200.367 24.388 200.087 24.812C199.807 25.228 199.435 25.54 198.971 25.748C198.515 25.956 198.023 26.06 197.495 26.06H195.671V29H194.603V20.504H197.471C198.359 20.504 199.087 20.728 199.655 21.176C200.223 21.624 200.507 22.32 200.507 23.264ZM195.659 21.356V25.196H197.399C197.967 25.196 198.443 25.032 198.827 24.704C199.219 24.376 199.415 23.9 199.415 23.276C199.415 22.604 199.219 22.116 198.827 21.812C198.443 21.508 197.959 21.356 197.375 21.356H195.659ZM202.923 20.504V29H201.903V20.504H202.923ZM204.457 27.332C204.457 26.54 204.741 25.992 205.309 25.688C205.885 25.376 206.749 25.22 207.901 25.22C208.181 25.22 208.393 25.224 208.537 25.232V24.884C208.537 24.428 208.413 24.088 208.165 23.864C207.917 23.64 207.537 23.528 207.025 23.528C206.377 23.528 205.765 23.7 205.189 24.044L204.829 23.36C205.517 22.936 206.269 22.724 207.085 22.724C207.941 22.724 208.565 22.924 208.957 23.324C209.357 23.724 209.557 24.332 209.557 25.148V27.644C209.557 28.084 209.585 28.536 209.641 29H208.705C208.649 28.648 208.621 28.372 208.621 28.172H208.585C208.361 28.5 208.077 28.748 207.733 28.916C207.397 29.084 206.961 29.168 206.425 29.168C205.833 29.168 205.357 29.012 204.997 28.7C204.637 28.38 204.457 27.924 204.457 27.332ZM208.537 26.744V25.952L207.997 25.94C207.397 25.94 206.917 25.98 206.557 26.06C206.205 26.14 205.941 26.276 205.765 26.468C205.597 26.66 205.513 26.928 205.513 27.272C205.513 27.624 205.617 27.896 205.825 28.088C206.033 28.272 206.321 28.364 206.689 28.364C207.073 28.364 207.405 28.284 207.685 28.124C207.965 27.956 208.177 27.748 208.321 27.5C208.465 27.252 208.537 27 208.537 26.744ZM214.128 22.724C214.512 22.724 214.876 22.784 215.22 22.904C215.572 23.016 215.884 23.176 216.156 23.384L215.748 24.092C215.284 23.748 214.744 23.576 214.128 23.576C213.472 23.576 212.976 23.792 212.64 24.224C212.304 24.648 212.136 25.22 212.136 25.94C212.136 26.644 212.304 27.216 212.64 27.656C212.976 28.088 213.468 28.304 214.116 28.304C214.668 28.304 215.216 28.132 215.76 27.788L216.132 28.508C215.524 28.948 214.828 29.168 214.044 29.168C213.356 29.168 212.792 29.016 212.352 28.712C211.912 28.4 211.592 28 211.392 27.512C211.2 27.024 211.104 26.5 211.104 25.94C211.104 24.964 211.372 24.184 211.908 23.6C212.444 23.016 213.184 22.724 214.128 22.724ZM222.52 26.312H217.984C218.024 26.936 218.212 27.432 218.548 27.8C218.884 28.168 219.364 28.352 219.988 28.352C220.356 28.352 220.684 28.304 220.972 28.208C221.268 28.104 221.564 27.952 221.86 27.752L222.316 28.412C221.972 28.66 221.604 28.848 221.212 28.976C220.828 29.104 220.4 29.168 219.928 29.168C218.992 29.168 218.26 28.872 217.732 28.28C217.212 27.688 216.952 26.9 216.952 25.916C216.952 25.284 217.064 24.728 217.288 24.248C217.512 23.768 217.836 23.396 218.26 23.132C218.692 22.86 219.208 22.724 219.808 22.724C220.696 22.724 221.372 23.012 221.836 23.588C222.308 24.164 222.544 24.928 222.544 25.88C222.544 26.072 222.536 26.216 222.52 26.312ZM221.548 25.52C221.532 24.912 221.376 24.424 221.08 24.056C220.784 23.688 220.356 23.504 219.796 23.504C219.228 23.504 218.788 23.696 218.476 24.08C218.164 24.456 217.996 24.936 217.972 25.52H221.548ZM224.181 20.504H225.201V23.744H225.225C225.425 23.44 225.697 23.196 226.041 23.012C226.385 22.82 226.809 22.724 227.313 22.724C228.081 22.724 228.649 22.948 229.017 23.396C229.385 23.836 229.569 24.388 229.569 25.052V29H228.549V25.256C228.549 24.768 228.429 24.368 228.189 24.056C227.949 23.736 227.561 23.576 227.025 23.576C226.473 23.576 226.029 23.76 225.693 24.128C225.365 24.488 225.201 24.944 225.201 25.496V29H224.181V20.504ZM237.252 25.928C237.252 26.56 237.128 27.124 236.88 27.62C236.64 28.108 236.288 28.488 235.824 28.76C235.368 29.032 234.82 29.168 234.18 29.168C233.548 29.168 233 29.032 232.536 28.76C232.072 28.48 231.72 28.096 231.48 27.608C231.24 27.12 231.12 26.56 231.12 25.928C231.12 24.952 231.388 24.176 231.924 23.6C232.46 23.016 233.212 22.724 234.18 22.724C234.828 22.724 235.38 22.86 235.836 23.132C236.3 23.396 236.652 23.768 236.892 24.248C237.132 24.728 237.252 25.288 237.252 25.928ZM232.176 25.928C232.176 26.656 232.34 27.244 232.668 27.692C233.004 28.132 233.508 28.352 234.18 28.352C234.86 28.352 235.368 28.132 235.704 27.692C236.04 27.244 236.208 26.656 236.208 25.928C236.208 25.2 236.04 24.62 235.704 24.188C235.368 23.756 234.86 23.54 234.18 23.54C233.5 23.54 232.996 23.756 232.668 24.188C232.34 24.62 232.176 25.2 232.176 25.928ZM239.919 20.504V29H238.899V20.504H239.919ZM247.465 29H246.517C246.461 28.648 246.433 28.344 246.433 28.088H246.409C245.953 28.808 245.225 29.168 244.225 29.168C243.361 29.168 242.697 28.872 242.233 28.28C241.777 27.688 241.549 26.916 241.549 25.964C241.549 25.356 241.661 24.808 241.885 24.32C242.117 23.824 242.445 23.436 242.869 23.156C243.293 22.868 243.793 22.724 244.369 22.724C245.185 22.724 245.849 22.988 246.361 23.516V20.504H247.381V27.644C247.381 28.084 247.409 28.536 247.465 29ZM246.361 26.372V24.452C246.121 24.148 245.849 23.924 245.545 23.78C245.249 23.628 244.905 23.552 244.513 23.552C243.921 23.552 243.453 23.776 243.109 24.224C242.773 24.672 242.605 25.252 242.605 25.964C242.605 26.7 242.769 27.284 243.097 27.716C243.425 28.14 243.877 28.352 244.453 28.352C245.029 28.352 245.489 28.168 245.833 27.8C246.185 27.424 246.361 26.948 246.361 26.372ZM254.57 26.312H250.034C250.074 26.936 250.262 27.432 250.598 27.8C250.934 28.168 251.414 28.352 252.038 28.352C252.406 28.352 252.734 28.304 253.022 28.208C253.318 28.104 253.614 27.952 253.91 27.752L254.366 28.412C254.022 28.66 253.654 28.848 253.262 28.976C252.878 29.104 252.45 29.168 251.978 29.168C251.042 29.168 250.31 28.872 249.782 28.28C249.262 27.688 249.002 26.9 249.002 25.916C249.002 25.284 249.114 24.728 249.338 24.248C249.562 23.768 249.886 23.396 250.31 23.132C250.742 22.86 251.258 22.724 251.858 22.724C252.746 22.724 253.422 23.012 253.886 23.588C254.358 24.164 254.594 24.928 254.594 25.88C254.594 26.072 254.586 26.216 254.57 26.312ZM253.598 25.52C253.582 24.912 253.426 24.424 253.13 24.056C252.834 23.688 252.406 23.504 251.846 23.504C251.278 23.504 250.838 23.696 250.526 24.08C250.214 24.456 250.046 24.936 250.022 25.52H253.598ZM256.22 24.26C256.22 23.812 256.192 23.356 256.136 22.892H257.108C257.148 23.164 257.176 23.488 257.192 23.864H257.216C257.568 23.104 258.208 22.724 259.136 22.724C259.2 22.724 259.316 22.736 259.484 22.76L259.424 23.636C259.344 23.62 259.22 23.612 259.052 23.612C258.468 23.612 258.02 23.808 257.708 24.2C257.396 24.592 257.24 25.1 257.24 25.724V29H256.22V24.26ZM269.036 22.736C269.036 23.304 268.916 23.816 268.676 24.272C268.436 24.72 268.032 25.216 267.464 25.76C266.904 26.304 266.012 27.088 264.788 28.112H269.312V29H263.384V28.172C264.768 26.98 265.752 26.108 266.336 25.556C266.928 24.996 267.344 24.516 267.584 24.116C267.832 23.716 267.956 23.288 267.956 22.832C267.956 22.344 267.788 21.948 267.452 21.644C267.116 21.34 266.656 21.188 266.072 21.188C265.624 21.188 265.228 21.272 264.884 21.44C264.548 21.608 264.208 21.86 263.864 22.196L263.228 21.644C263.652 21.196 264.088 20.864 264.536 20.648C264.984 20.424 265.524 20.312 266.156 20.312C266.756 20.312 267.272 20.424 267.704 20.648C268.144 20.864 268.476 21.156 268.7 21.524C268.924 21.892 269.036 22.296 269.036 22.736Z" fill="#9B51E0"/>
<rect x="309" y="7" width="69.25" height="2" fill="#E0E0E7"/>
<g clip-path="url(#clip0_102_4621)">
<path fill-rule="evenodd" clip-rule="evenodd" d="M386.25 16C390.668 16 394.25 12.4183 394.25 8C394.25 3.58172 390.668 0 386.25 0C381.832 0 378.25 3.58172 378.25 8C378.25 12.4183 381.832 16 386.25 16Z" fill="white"/>
<path fill-rule="evenodd" clip-rule="evenodd" d="M386.25 12C388.459 12 390.25 10.2091 390.25 8C390.25 5.79086 388.459 4 386.25 4C384.041 4 382.25 5.79086 382.25 8C382.25 10.2091 384.041 12 386.25 12Z" fill="#E0E0E7"/>
</g>
<rect x="394.25" y="7" width="69.25" height="2" fill="#E0E0E7"/>
<path d="M355.007 23.264C355.007 23.872 354.867 24.388 354.587 24.812C354.307 25.228 353.935 25.54 353.471 25.748C353.015 25.956 352.523 26.06 351.995 26.06H350.171V29H349.103V20.504H351.971C352.859 20.504 353.587 20.728 354.155 21.176C354.723 21.624 355.007 22.32 355.007 23.264ZM350.159 21.356V25.196H351.899C352.467 25.196 352.943 25.032 353.327 24.704C353.719 24.376 353.915 23.9 353.915 23.276C353.915 22.604 353.719 22.116 353.327 21.812C352.943 21.508 352.459 21.356 351.875 21.356H350.159ZM357.423 20.504V29H356.403V20.504H357.423ZM358.957 27.332C358.957 26.54 359.241 25.992 359.809 25.688C360.385 25.376 361.249 25.22 362.401 25.22C362.681 25.22 362.893 25.224 363.037 25.232V24.884C363.037 24.428 362.913 24.088 362.665 23.864C362.417 23.64 362.037 23.528 361.525 23.528C360.877 23.528 360.265 23.7 359.689 24.044L359.329 23.36C360.017 22.936 360.769 22.724 361.585 22.724C362.441 22.724 363.065 22.924 363.457 23.324C363.857 23.724 364.057 24.332 364.057 25.148V27.644C364.057 28.084 364.085 28.536 364.141 29H363.205C363.149 28.648 363.121 28.372 363.121 28.172H363.085C362.861 28.5 362.577 28.748 362.233 28.916C361.897 29.084 361.461 29.168 360.925 29.168C360.333 29.168 359.857 29.012 359.497 28.7C359.137 28.38 358.957 27.924 358.957 27.332ZM363.037 26.744V25.952L362.497 25.94C361.897 25.94 361.417 25.98 361.057 26.06C360.705 26.14 360.441 26.276 360.265 26.468C360.097 26.66 360.013 26.928 360.013 27.272C360.013 27.624 360.117 27.896 360.325 28.088C360.533 28.272 360.821 28.364 361.189 28.364C361.573 28.364 361.905 28.284 362.185 28.124C362.465 27.956 362.677 27.748 362.821 27.5C362.965 27.252 363.037 27 363.037 26.744ZM368.628 22.724C369.012 22.724 369.376 22.784 369.72 22.904C370.072 23.016 370.384 23.176 370.656 23.384L370.248 24.092C369.784 23.748 369.244 23.576 368.628 23.576C367.972 23.576 367.476 23.792 367.14 24.224C366.804 24.648 366.636 25.22 366.636 25.94C366.636 26.644 366.804 27.216 367.14 27.656C367.476 28.088 367.968 28.304 368.616 28.304C369.168 28.304 369.716 28.132 370.26 27.788L370.632 28.508C370.024 28.948 369.328 29.168 368.544 29.168C367.856 29.168 367.292 29.016 366.852 28.712C366.412 28.4 366.092 28 365.892 27.512C365.7 27.024 365.604 26.5 365.604 25.94C365.604 24.964 365.872 24.184 366.408 23.6C366.944 23.016 367.684 22.724 368.628 22.724ZM377.02 26.312H372.484C372.524 26.936 372.712 27.432 373.048 27.8C373.384 28.168 373.864 28.352 374.488 28.352C374.856 28.352 375.184 28.304 375.472 28.208C375.768 28.104 376.064 27.952 376.36 27.752L376.816 28.412C376.472 28.66 376.104 28.848 375.712 28.976C375.328 29.104 374.9 29.168 374.428 29.168C373.492 29.168 372.76 28.872 372.232 28.28C371.712 27.688 371.452 26.9 371.452 25.916C371.452 25.284 371.564 24.728 371.788 24.248C372.012 23.768 372.336 23.396 372.76 23.132C373.192 22.86 373.708 22.724 374.308 22.724C375.196 22.724 375.872 23.012 376.336 23.588C376.808 24.164 377.044 24.928 377.044 25.88C377.044 26.072 377.036 26.216 377.02 26.312ZM376.048 25.52C376.032 24.912 375.876 24.424 375.58 24.056C375.284 23.688 374.856 23.504 374.296 23.504C373.728 23.504 373.288 23.696 372.976 24.08C372.664 24.456 372.496 24.936 372.472 25.52H376.048ZM378.681 20.504H379.701V23.744H379.725C379.925 23.44 380.197 23.196 380.541 23.012C380.885 22.82 381.309 22.724 381.813 22.724C382.581 22.724 383.149 22.948 383.517 23.396C383.885 23.836 384.069 24.388 384.069 25.052V29H383.049V25.256C383.049 24.768 382.929 24.368 382.689 24.056C382.449 23.736 382.061 23.576 381.525 23.576C380.973 23.576 380.529 23.76 380.193 24.128C379.865 24.488 379.701 24.944 379.701 25.496V29H378.681V20.504ZM391.752 25.928C391.752 26.56 391.628 27.124 391.38 27.62C391.14 28.108 390.788 28.488 390.324 28.76C389.868 29.032 389.32 29.168 388.68 29.168C388.048 29.168 387.5 29.032 387.036 28.76C386.572 28.48 386.22 28.096 385.98 27.608C385.74 27.12 385.62 26.56 385.62 25.928C385.62 24.952 385.888 24.176 386.424 23.6C386.96 23.016 387.712 22.724 388.68 22.724C389.328 22.724 389.88 22.86 390.336 23.132C390.8 23.396 391.152 23.768 391.392 24.248C391.632 24.728 391.752 25.288 391.752 25.928ZM386.676 25.928C386.676 26.656 386.84 27.244 387.168 27.692C387.504 28.132 388.008 28.352 388.68 28.352C389.36 28.352 389.868 28.132 390.204 27.692C390.54 27.244 390.708 26.656 390.708 25.928C390.708 25.2 390.54 24.62 390.204 24.188C389.868 23.756 389.36 23.54 388.68 23.54C388 23.54 387.496 23.756 387.168 24.188C386.84 24.62 386.676 25.2 386.676 25.928ZM394.419 20.504V29H393.399V20.504H394.419ZM401.965 29H401.017C400.961 28.648 400.933 28.344 400.933 28.088H400.909C400.453 28.808 399.725 29.168 398.725 29.168C397.861 29.168 397.197 28.872 396.733 28.28C396.277 27.688 396.049 26.916 396.049 25.964C396.049 25.356 396.161 24.808 396.385 24.32C396.617 23.824 396.945 23.436 397.369 23.156C397.793 22.868 398.293 22.724 398.869 22.724C399.685 22.724 400.349 22.988 400.861 23.516V20.504H401.881V27.644C401.881 28.084 401.909 28.536 401.965 29ZM400.861 26.372V24.452C400.621 24.148 400.349 23.924 400.045 23.78C399.749 23.628 399.405 23.552 399.013 23.552C398.421 23.552 397.953 23.776 397.609 24.224C397.273 24.672 397.105 25.252 397.105 25.964C397.105 26.7 397.269 27.284 397.597 27.716C397.925 28.14 398.377 28.352 398.953 28.352C399.529 28.352 399.989 28.168 400.333 27.8C400.685 27.424 400.861 26.948 400.861 26.372ZM409.07 26.312H404.534C404.574 26.936 404.762 27.432 405.098 27.8C405.434 28.168 405.914 28.352 406.538 28.352C406.906 28.352 407.234 28.304 407.522 28.208C407.818 28.104 408.114 27.952 408.41 27.752L408.866 28.412C408.522 28.66 408.154 28.848 407.762 28.976C407.378 29.104 406.95 29.168 406.478 29.168C405.542 29.168 404.81 28.872 404.282 28.28C403.762 27.688 403.502 26.9 403.502 25.916C403.502 25.284 403.614 24.728 403.838 24.248C404.062 23.768 404.386 23.396 404.81 23.132C405.242 22.86 405.758 22.724 406.358 22.724C407.246 22.724 407.922 23.012 408.386 23.588C408.858 24.164 409.094 24.928 409.094 25.88C409.094 26.072 409.086 26.216 409.07 26.312ZM408.098 25.52C408.082 24.912 407.926 24.424 407.63 24.056C407.334 23.688 406.906 23.504 406.346 23.504C405.778 23.504 405.338 23.696 405.026 24.08C404.714 24.456 404.546 24.936 404.522 25.52H408.098ZM410.72 24.26C410.72 23.812 410.692 23.356 410.636 22.892H411.608C411.648 23.164 411.676 23.488 411.692 23.864H411.716C412.068 23.104 412.708 22.724 413.636 22.724C413.7 22.724 413.816 22.736 413.984 22.76L413.924 23.636C413.844 23.62 413.72 23.612 413.552 23.612C412.968 23.612 412.52 23.808 412.208 24.2C411.896 24.592 411.74 25.1 411.74 25.724V29H410.72V24.26ZM423.368 22.544C423.368 23.144 423.216 23.6 422.912 23.912C422.616 24.224 422.244 24.428 421.796 24.524V24.548C422.308 24.604 422.74 24.8 423.092 25.136C423.452 25.464 423.632 25.952 423.632 26.6C423.632 27.112 423.508 27.564 423.26 27.956C423.012 28.348 422.652 28.656 422.18 28.88C421.708 29.096 421.14 29.204 420.476 29.204C419.82 29.204 419.26 29.108 418.796 28.916C418.332 28.724 417.9 28.428 417.5 28.028L418.064 27.404C418.432 27.732 418.796 27.968 419.156 28.112C419.524 28.248 419.964 28.316 420.476 28.316C421.116 28.316 421.62 28.164 421.988 27.86C422.364 27.548 422.552 27.116 422.552 26.564C422.552 26.028 422.392 25.636 422.072 25.388C421.76 25.132 421.324 25.004 420.764 25.004H419.444V24.14H420.572C421.1 24.14 421.524 24.02 421.844 23.78C422.164 23.532 422.324 23.16 422.324 22.664C422.324 22.192 422.168 21.828 421.856 21.572C421.544 21.308 421.1 21.176 420.524 21.176C420.092 21.176 419.7 21.24 419.348 21.368C419.004 21.496 418.656 21.696 418.304 21.968L417.752 21.368C418.176 21 418.616 20.732 419.072 20.564C419.528 20.388 420.044 20.3 420.62 20.3C421.196 20.3 421.688 20.396 422.096 20.588C422.512 20.78 422.828 21.048 423.044 21.392C423.26 21.728 423.368 22.112 423.368 22.544Z" fill="#898F8F"/>
<rect x="463.5" y="7" width="69.25" height="2" fill="#E0E0E7"/>
<g clip-path="url(#clip1_102_4621)">
<path fill-rule="evenodd" clip-rule="evenodd" d="M540.75 16C545.168 16 548.75 12.4183 548.75 8C548.75 3.58172 545.168 0 540.75 0C536.332 0 532.75 3.58172 532.75 8C532.75 12.4183 536.332 16 540.75 16Z" fill="white"/>
<path fill-rule="evenodd" clip-rule="evenodd" d="M540.75 12C542.959 12 544.75 10.2091 544.75 8C544.75 5.79086 542.959 4 540.75 4C538.541 4 536.75 5.79086 536.75 8C536.75 10.2091 538.541 12 540.75 12Z" fill="#E0E0E7"/>
</g>
<path d="M509.507 23.264C509.507 23.872 509.367 24.388 509.087 24.812C508.807 25.228 508.435 25.54 507.971 25.748C507.515 25.956 507.023 26.06 506.495 26.06H504.671V29H503.603V20.504H506.471C507.359 20.504 508.087 20.728 508.655 21.176C509.223 21.624 509.507 22.32 509.507 23.264ZM504.659 21.356V25.196H506.399C506.967 25.196 507.443 25.032 507.827 24.704C508.219 24.376 508.415 23.9 508.415 23.276C508.415 22.604 508.219 22.116 507.827 21.812C507.443 21.508 506.959 21.356 506.375 21.356H504.659ZM511.923 20.504V29H510.903V20.504H511.923ZM513.457 27.332C513.457 26.54 513.741 25.992 514.309 25.688C514.885 25.376 515.749 25.22 516.901 25.22C517.181 25.22 517.393 25.224 517.537 25.232V24.884C517.537 24.428 517.413 24.088 517.165 23.864C516.917 23.64 516.537 23.528 516.025 23.528C515.377 23.528 514.765 23.7 514.189 24.044L513.829 23.36C514.517 22.936 515.269 22.724 516.085 22.724C516.941 22.724 517.565 22.924 517.957 23.324C518.357 23.724 518.557 24.332 518.557 25.148V27.644C518.557 28.084 518.585 28.536 518.641 29H517.705C517.649 28.648 517.621 28.372 517.621 28.172H517.585C517.361 28.5 517.077 28.748 516.733 28.916C516.397 29.084 515.961 29.168 515.425 29.168C514.833 29.168 514.357 29.012 513.997 28.7C513.637 28.38 513.457 27.924 513.457 27.332ZM517.537 26.744V25.952L516.997 25.94C516.397 25.94 515.917 25.98 515.557 26.06C515.205 26.14 514.941 26.276 514.765 26.468C514.597 26.66 514.513 26.928 514.513 27.272C514.513 27.624 514.617 27.896 514.825 28.088C515.033 28.272 515.321 28.364 515.689 28.364C516.073 28.364 516.405 28.284 516.685 28.124C516.965 27.956 517.177 27.748 517.321 27.5C517.465 27.252 517.537 27 517.537 26.744ZM523.128 22.724C523.512 22.724 523.876 22.784 524.22 22.904C524.572 23.016 524.884 23.176 525.156 23.384L524.748 24.092C524.284 23.748 523.744 23.576 523.128 23.576C522.472 23.576 521.976 23.792 521.64 24.224C521.304 24.648 521.136 25.22 521.136 25.94C521.136 26.644 521.304 27.216 521.64 27.656C521.976 28.088 522.468 28.304 523.116 28.304C523.668 28.304 524.216 28.132 524.76 27.788L525.132 28.508C524.524 28.948 523.828 29.168 523.044 29.168C522.356 29.168 521.792 29.016 521.352 28.712C520.912 28.4 520.592 28 520.392 27.512C520.2 27.024 520.104 26.5 520.104 25.94C520.104 24.964 520.372 24.184 520.908 23.6C521.444 23.016 522.184 22.724 523.128 22.724ZM531.52 26.312H526.984C527.024 26.936 527.212 27.432 527.548 27.8C527.884 28.168 528.364 28.352 528.988 28.352C529.356 28.352 529.684 28.304 529.972 28.208C530.268 28.104 530.564 27.952 530.86 27.752L531.316 28.412C530.972 28.66 530.604 28.848 530.212 28.976C529.828 29.104 529.4 29.168 528.928 29.168C527.992 29.168 527.26 28.872 526.732 28.28C526.212 27.688 525.952 26.9 525.952 25.916C525.952 25.284 526.064 24.728 526.288 24.248C526.512 23.768 526.836 23.396 527.26 23.132C527.692 22.86 528.208 22.724 528.808 22.724C529.696 22.724 530.372 23.012 530.836 23.588C531.308 24.164 531.544 24.928 531.544 25.88C531.544 26.072 531.536 26.216 531.52 26.312ZM530.548 25.52C530.532 24.912 530.376 24.424 530.08 24.056C529.784 23.688 529.356 23.504 528.796 23.504C528.228 23.504 527.788 23.696 527.476 24.08C527.164 24.456 526.996 24.936 526.972 25.52H530.548ZM533.181 20.504H534.201V23.744H534.225C534.425 23.44 534.697 23.196 535.041 23.012C535.385 22.82 535.809 22.724 536.313 22.724C537.081 22.724 537.649 22.948 538.017 23.396C538.385 23.836 538.569 24.388 538.569 25.052V29H537.549V25.256C537.549 24.768 537.429 24.368 537.189 24.056C536.949 23.736 536.561 23.576 536.025 23.576C535.473 23.576 535.029 23.76 534.693 24.128C534.365 24.488 534.201 24.944 534.201 25.496V29H533.181V20.504ZM546.252 25.928C546.252 26.56 546.128 27.124 545.88 27.62C545.64 28.108 545.288 28.488 544.824 28.76C544.368 29.032 543.82 29.168 543.18 29.168C542.548 29.168 542 29.032 541.536 28.76C541.072 28.48 540.72 28.096 540.48 27.608C540.24 27.12 540.12 26.56 540.12 25.928C540.12 24.952 540.388 24.176 540.924 23.6C541.46 23.016 542.212 22.724 543.18 22.724C543.828 22.724 544.38 22.86 544.836 23.132C545.3 23.396 545.652 23.768 545.892 24.248C546.132 24.728 546.252 25.288 546.252 25.928ZM541.176 25.928C541.176 26.656 541.34 27.244 541.668 27.692C542.004 28.132 542.508 28.352 543.18 28.352C543.86 28.352 544.368 28.132 544.704 27.692C545.04 27.244 545.208 26.656 545.208 25.928C545.208 25.2 545.04 24.62 544.704 24.188C544.368 23.756 543.86 23.54 543.18 23.54C542.5 23.54 541.996 23.756 541.668 24.188C541.34 24.62 541.176 25.2 541.176 25.928ZM548.919 20.504V29H547.899V20.504H548.919ZM556.465 29H555.517C555.461 28.648 555.433 28.344 555.433 28.088H555.409C554.953 28.808 554.225 29.168 553.225 29.168C552.361 29.168 551.697 28.872 551.233 28.28C550.777 27.688 550.549 26.916 550.549 25.964C550.549 25.356 550.661 24.808 550.885 24.32C551.117 23.824 551.445 23.436 551.869 23.156C552.293 22.868 552.793 22.724 553.369 22.724C554.185 22.724 554.849 22.988 555.361 23.516V20.504H556.381V27.644C556.381 28.084 556.409 28.536 556.465 29ZM555.361 26.372V24.452C555.121 24.148 554.849 23.924 554.545 23.78C554.249 23.628 553.905 23.552 553.513 23.552C552.921 23.552 552.453 23.776 552.109 24.224C551.773 24.672 551.605 25.252 551.605 25.964C551.605 26.7 551.769 27.284 552.097 27.716C552.425 28.14 552.877 28.352 553.453 28.352C554.029 28.352 554.489 28.168 554.833 27.8C555.185 27.424 555.361 26.948 555.361 26.372ZM563.57 26.312H559.034C559.074 26.936 559.262 27.432 559.598 27.8C559.934 28.168 560.414 28.352 561.038 28.352C561.406 28.352 561.734 28.304 562.022 28.208C562.318 28.104 562.614 27.952 562.91 27.752L563.366 28.412C563.022 28.66 562.654 28.848 562.262 28.976C561.878 29.104 561.45 29.168 560.978 29.168C560.042 29.168 559.31 28.872 558.782 28.28C558.262 27.688 558.002 26.9 558.002 25.916C558.002 25.284 558.114 24.728 558.338 24.248C558.562 23.768 558.886 23.396 559.31 23.132C559.742 22.86 560.258 22.724 560.858 22.724C561.746 22.724 562.422 23.012 562.886 23.588C563.358 24.164 563.594 24.928 563.594 25.88C563.594 26.072 563.586 26.216 563.57 26.312ZM562.598 25.52C562.582 24.912 562.426 24.424 562.13 24.056C561.834 23.688 561.406 23.504 560.846 23.504C560.278 23.504 559.838 23.696 559.526 24.08C559.214 24.456 559.046 24.936 559.022 25.52H562.598ZM565.22 24.26C565.22 23.812 565.192 23.356 565.136 22.892H566.108C566.148 23.164 566.176 23.488 566.192 23.864H566.216C566.568 23.104 567.208 22.724 568.136 22.724C568.2 22.724 568.316 22.736 568.484 22.76L568.424 23.636C568.344 23.62 568.22 23.612 568.052 23.612C567.468 23.612 567.02 23.808 566.708 24.2C566.396 24.592 566.24 25.1 566.24 25.724V29H565.22V24.26ZM578.576 26.936H577.34V29H576.32V26.936H571.952V26.132L574.88 20.504H575.996L573.14 26.048H576.308V23.66H577.34V26.048H578.576V26.936Z" fill="#898F8F"/>
<defs>
<clipPath id="clip0_102_4621">
<rect width="16" height="16" fill="white" transform="translate(378.25)"/>
</clipPath>
<clipPath id="clip1_102_4621">
<rect width="16" height="16" fill="white" transform="translate(532.75)"/>
</clipPath>
</defs>
</svg>
